# MagicaVoxel @ Ephtracy

# group
o 

# material
mtllib Building02.mtl
usemtl palette

# normals
vn -1 0 0
vn 1 0 0
vn 0 0 1
vn 0 0 -1
vn 0 -1 0
vn 0 1 0

# texcoords
vt 0.0136719 0.5
vt 0.0175781 0.5
vt 0.0214844 0.5
vt 0.0371094 0.5
vt 0.0722656 0.5
vt 0.0761719 0.5
vt 0.103516 0.5
vt 0.107422 0.5
vt 0.169922 0.5

# verts
v -2.2 0 3.2
v -2.2 0 2.1
v -2.2 0 -0.1
v -2.2 0 -3.2
v -2.2 0.2 3.2
v -2.2 0.2 2.1
v -2.2 0.2 -0.1
v -2.2 0.2 -3.2
v -2.1 2.7 3.1
v -2.1 2.7 -3.1
v -2.1 3 3.1
v -2.1 3 -3.1
v -2 0 2.1
v -2 0 2
v -2 0 0
v -2 0 -0.1
v -2 0.1 2
v -2 0.1 0
v -2 0.2 3
v -2 0.2 2.1
v -2 0.2 -0.1
v -2 0.2 -3
v -2 1.4 -0.4
v -2 1.4 -1.2
v -2 1.4 -1.6
v -2 1.4 -2.4
v -2 1.9 -0.4
v -2 1.9 -1.2
v -2 1.9 -1.6
v -2 1.9 -2.4
v -2 2 2.1
v -2 2 2
v -2 2 0
v -2 2 -0.1
v -2 2.7 3
v -2 2.7 -3
v -2 3 3
v -2 3 -3
v -2 3.2 2
v -2 3.2 1.2
v -2 3.2 0.8
v -2 3.2 0
v -2 3.2 -0.4
v -2 3.2 -1.2
v -2 3.2 -1.6
v -2 3.2 -2.4
v -2 3.7 2
v -2 3.7 1.2
v -2 3.7 0.8
v -2 3.7 0
v -2 3.7 -0.4
v -2 3.7 -1.2
v -2 3.7 -1.6
v -2 3.7 -2.4
v -2 4 3
v -2 4 -3
v -1.9 1 2
v -1.9 1 0
v -1.9 1.4 -0.4
v -1.9 1.4 -1.2
v -1.9 1.5 2
v -1.9 1.5 0
v -1.9 1.6 2
v -1.9 1.6 0
v -1.9 1.9 -0.4
v -1.9 1.9 -1.2
v -1.9 2 2
v -1.9 2 0
v -1.9 3.2 2
v -1.9 3.2 1.2
v -1.9 3.2 0.8
v -1.9 3.2 0
v -1.9 3.2 -0.4
v -1.9 3.2 -1.2
v -1.9 3.2 -1.6
v -1.9 3.2 -2.4
v -1.9 3.7 2
v -1.9 3.7 1.2
v -1.9 3.7 0.8
v -1.9 3.7 0
v -1.9 3.7 -0.4
v -1.9 3.7 -1.2
v -1.9 3.7 -1.6
v -1.9 3.7 -2.4
v -1.8 1.4 -1.6
v -1.8 1.4 -2.4
v -1.8 1.9 -1.6
v -1.8 1.9 -2.4
v -1.6 0.1 2
v -1.6 0.1 0
v -1.6 1 2
v -1.6 1 0
v -1.4 0.5 3.1
v -1.4 0.5 3
v -1.4 1.4 3.1
v -1.4 1.4 3
v -0.6 2 3
v -0.6 2 2.9
v -0.6 2.5 3
v -0.6 2.5 2.9
v -0.6 3.7 2.2
v -0.6 3.7 1.6
v -0.6 4.1 2.2
v -0.6 4.1 1.6
v -0.6 4.2 2.2
v -0.6 4.2 1.6
v 0.6 0.5 3.1
v 0.6 0.5 3
v 0.6 1.4 3.1
v 0.6 1.4 3
v 0.6 3.7 2.2
v 0.6 3.7 1.6
v 0.6 3.7 -1.2
v 0.6 3.7 -2.3
v 0.6 4.1 2.2
v 0.6 4.1 1.6
v 0.6 4.2 2.2
v 0.6 4.2 1.6
v 0.6 4.3 -1.2
v 0.6 4.3 -2.3
v 0.6 4.4 -1.2
v 0.6 4.4 -2.3
v 0.6 4.8 -0.3
v 0.6 4.8 -1
v 0.6 5 -0.3
v 0.6 5 -1
v 0.7 3.7 -0.4
v 0.7 3.7 -0.9
v 0.7 4.8 -0.4
v 0.7 4.8 -0.9
v 1.3 2 3
v 1.3 2 2.9
v 1.3 2.5 3
v 1.3 2.5 2.9
v 1.7 3.7 2.6
v 1.7 3.7 -2.7
v 1.7 4 2.6
v 1.7 4 -2.7
v -1.7 3.7 2.6
v -1.7 3.7 -2.7
v -1.7 4 2.6
v -1.7 4 -2.7
v -1.3 2 3
v -1.3 2 2.9
v -1.3 2.5 3
v -1.3 2.5 2.9
v -0.6 0.5 3.1
v -0.6 0.5 3
v -0.6 1.4 3.1
v -0.6 1.4 3
v 0 3.7 2.2
v 0 3.7 1.6
v 0 4.1 2.2
v 0 4.1 1.6
v 0 4.2 2.2
v 0 4.2 1.6
v 0.6 2 3
v 0.6 2 2.9
v 0.6 2.5 3
v 0.6 2.5 2.9
v 1.2 3.7 2.2
v 1.2 3.7 1.6
v 1.2 3.7 -0.4
v 1.2 3.7 -0.9
v 1.2 4.1 2.2
v 1.2 4.1 1.6
v 1.2 4.2 2.2
v 1.2 4.2 1.6
v 1.2 4.8 -0.4
v 1.2 4.8 -0.9
v 1.3 4.8 -0.3
v 1.3 4.8 -1
v 1.3 5 -0.3
v 1.3 5 -1
v 1.4 0.5 3.1
v 1.4 0.5 3
v 1.4 1.4 3.1
v 1.4 1.4 3
v 1.4 3.7 -1.2
v 1.4 3.7 -2.3
v 1.4 4.3 -1.2
v 1.4 4.3 -2.3
v 1.4 4.4 -1.2
v 1.4 4.4 -2.3
v 2 0.2 3
v 2 0.2 -3
v 2 2.7 3
v 2 2.7 -3
v 2 3 3
v 2 3 -3
v 2 4 3
v 2 4 -3
v 2.1 2.7 3.1
v 2.1 2.7 -3.1
v 2.1 3 3.1
v 2.1 3 -3.1
v 2.2 0 3.2
v 2.2 0 -3.2
v 2.2 0.2 3.2
v 2.2 0.2 -3.2
v -2.2 0 3.2
v -2.2 0.2 3.2
v 2.2 0 3.2
v 2.2 0.2 3.2
v -2.1 2.7 3.1
v -2.1 3 3.1
v -1.4 0.5 3.1
v -1.4 1.4 3.1
v -1.3 0.6 3.1
v -1.3 0.7 3.1
v -1.3 0.8 3.1
v -1.3 0.9 3.1
v -1.3 1 3.1
v -1.3 1.1 3.1
v -1.3 1.2 3.1
v -1.3 1.3 3.1
v -0.7 0.6 3.1
v -0.7 0.7 3.1
v -0.7 0.8 3.1
v -0.7 0.9 3.1
v -0.7 1 3.1
v -0.7 1.1 3.1
v -0.7 1.2 3.1
v -0.7 1.3 3.1
v -0.6 0.5 3.1
v -0.6 1.4 3.1
v 0.6 0.5 3.1
v 0.6 1.4 3.1
v 0.7 0.6 3.1
v 0.7 0.7 3.1
v 0.7 0.8 3.1
v 0.7 0.9 3.1
v 0.7 1 3.1
v 0.7 1.1 3.1
v 0.7 1.2 3.1
v 0.7 1.3 3.1
v 1.3 0.6 3.1
v 1.3 0.7 3.1
v 1.3 0.8 3.1
v 1.3 0.9 3.1
v 1.3 1 3.1
v 1.3 1.1 3.1
v 1.3 1.2 3.1
v 1.3 1.3 3.1
v 1.4 0.5 3.1
v 1.4 1.4 3.1
v 2.1 2.7 3.1
v 2.1 3 3.1
v -2 0.2 3
v -2 2.7 3
v -2 3 3
v -2 4 3
v -1.4 0.5 3
v -1.4 1.4 3
v -1.3 2 3
v -1.3 2.5 3
v -0.6 0.5 3
v -0.6 1.4 3
v -0.6 2 3
v -0.6 2.5 3
v 0.6 0.5 3
v 0.6 1.4 3
v 0.6 2 3
v 0.6 2.5 3
v 1.3 2 3
v 1.3 2.5 3
v 1.4 0.5 3
v 1.4 1.4 3
v 2 0.2 3
v 2 2.7 3
v 2 3 3
v 2 4 3
v -1.3 2 2.9
v -1.3 2.5 2.9
v -0.6 2 2.9
v -0.6 2.5 2.9
v 0.6 2 2.9
v 0.6 2.5 2.9
v 1.3 2 2.9
v 1.3 2.5 2.9
v -0.6 3.7 2.2
v -0.6 4.1 2.2
v -0.6 4.2 2.2
v 0 3.7 2.2
v 0 4.1 2.2
v 0 4.2 2.2
v 0.6 3.7 2.2
v 0.6 4.1 2.2
v 0.6 4.2 2.2
v 1.2 3.7 2.2
v 1.2 4.1 2.2
v 1.2 4.2 2.2
v -2 3.2 1.2
v -2 3.7 1.2
v -1.9 3.2 1.2
v -1.9 3.7 1.2
v -2 0.1 0
v -2 2 0
v -2 3.2 0
v -2 3.7 0
v -1.9 1 0
v -1.9 1.5 0
v -1.9 1.6 0
v -1.9 2 0
v -1.9 3.2 0
v -1.9 3.7 0
v -1.8 1 0
v -1.7 1 0
v -1.6 0.1 0
v -1.6 1 0
v -2.2 0 -0.1
v -2.2 0.2 -0.1
v -2 0 -0.1
v -2 0.2 -0.1
v 0.6 4.8 -0.3
v 0.6 5 -0.3
v 1.3 4.8 -0.3
v 1.3 5 -0.3
v 0.7 3.7 -0.4
v 0.7 4.8 -0.4
v 1.2 3.7 -0.4
v 1.2 4.8 -0.4
v -2 1.4 -1.2
v -2 1.9 -1.2
v -2 3.2 -1.2
v -2 3.7 -1.2
v -1.9 1.4 -1.2
v -1.9 1.9 -1.2
v -1.9 3.2 -1.2
v -1.9 3.7 -1.2
v 0.6 3.7 -1.2
v 0.6 4.3 -1.2
v 0.6 4.4 -1.2
v 1.4 3.7 -1.2
v 1.4 4.3 -1.2
v 1.4 4.4 -1.2
v -2 1.4 -2.4
v -2 1.9 -2.4
v -2 3.2 -2.4
v -2 3.7 -2.4
v -1.9 3.2 -2.4
v -1.9 3.7 -2.4
v -1.8 1.4 -2.4
v -1.8 1.9 -2.4
v -1.7 3.7 -2.7
v -1.7 4 -2.7
v 1.7 3.7 -2.7
v 1.7 4 -2.7
v -1.7 3.7 2.6
v -1.7 4 2.6
v 1.7 3.7 2.6
v 1.7 4 2.6
v -2.2 0 2.1
v -2.2 0.2 2.1
v -2 0 2.1
v -2 0.2 2.1
v -2 0.1 2
v -2 2 2
v -2 3.2 2
v -2 3.7 2
v -1.9 1 2
v -1.9 1.5 2
v -1.9 1.6 2
v -1.9 2 2
v -1.9 3.2 2
v -1.9 3.7 2
v -1.8 1 2
v -1.7 1 2
v -1.6 0.1 2
v -1.6 1 2
v -0.6 3.7 1.6
v -0.6 4.1 1.6
v -0.6 4.2 1.6
v 0 3.7 1.6
v 0 4.1 1.6
v 0 4.2 1.6
v 0.6 3.7 1.6
v 0.6 4.1 1.6
v 0.6 4.2 1.6
v 1.2 3.7 1.6
v 1.2 4.1 1.6
v 1.2 4.2 1.6
v -2 3.2 0.8
v -2 3.7 0.8
v -1.9 3.2 0.8
v -1.9 3.7 0.8
v -2 1.4 -0.4
v -2 1.9 -0.4
v -2 3.2 -0.4
v -2 3.7 -0.4
v -1.9 1.4 -0.4
v -1.9 1.9 -0.4
v -1.9 3.2 -0.4
v -1.9 3.7 -0.4
v 0.7 3.7 -0.9
v 0.7 4.8 -0.9
v 1.2 3.7 -0.9
v 1.2 4.8 -0.9
v 0.6 4.8 -1
v 0.6 5 -1
v 1.3 4.8 -1
v 1.3 5 -1
v -2 1.4 -1.6
v -2 1.9 -1.6
v -2 3.2 -1.6
v -2 3.7 -1.6
v -1.9 3.2 -1.6
v -1.9 3.7 -1.6
v -1.8 1.4 -1.6
v -1.8 1.9 -1.6
v 0.6 3.7 -2.3
v 0.6 4.3 -2.3
v 0.6 4.4 -2.3
v 1.4 3.7 -2.3
v 1.4 4.3 -2.3
v 1.4 4.4 -2.3
v -2 0.2 -3
v -2 2.7 -3
v -2 3 -3
v -2 4 -3
v 2 0.2 -3
v 2 2.7 -3
v 2 3 -3
v 2 4 -3
v -2.1 2.7 -3.1
v -2.1 3 -3.1
v 2.1 2.7 -3.1
v 2.1 3 -3.1
v -2.2 0 -3.2
v -2.2 0.2 -3.2
v 2.2 0 -3.2
v 2.2 0.2 -3.2
v -2.2 0 3.2
v 2.2 0 3.2
v -2 0 3
v 2 0 3
v -2.2 0 2.1
v -2 0 2.1
v -1.6 0 2.1
v -2 0 2
v -1.6 0 2
v -1.5 0 2
v -2 0 0
v -1.6 0 0
v -1.5 0 0
v -2.2 0 -0.1
v -2 0 -0.1
v -1.6 0 -0.1
v -2 0 -3
v 2 0 -3
v -2.2 0 -3.2
v 2.2 0 -3.2
v -1.4 0.5 3.1
v -0.6 0.5 3.1
v 0.6 0.5 3.1
v 1.4 0.5 3.1
v -1.4 0.5 3
v -0.6 0.5 3
v 0.6 0.5 3
v 1.4 0.5 3
v -1.9 1 2
v -1.8 1 2
v -1.7 1 2
v -1.6 1 2
v -1.9 1 0
v -1.8 1 0
v -1.7 1 0
v -1.6 1 0
v -2 1.9 -0.4
v -1.9 1.9 -0.4
v -2 1.9 -1.2
v -1.9 1.9 -1.2
v -2 1.9 -1.6
v -1.8 1.9 -1.6
v -2 1.9 -2.4
v -1.8 1.9 -2.4
v -2 2 2
v -1.9 2 2
v -2 2 0
v -1.9 2 0
v -1.3 2.5 3
v -0.6 2.5 3
v 0.6 2.5 3
v 1.3 2.5 3
v -1.3 2.5 2.9
v -0.6 2.5 2.9
v 0.6 2.5 2.9
v 1.3 2.5 2.9
v -2.1 2.7 3.1
v 2.1 2.7 3.1
v -2 2.7 3
v 2 2.7 3
v -2 2.7 -3
v 2 2.7 -3
v -2.1 2.7 -3.1
v 2.1 2.7 -3.1
v -2 3.7 2
v -1.9 3.7 2
v -2 3.7 1.2
v -1.9 3.7 1.2
v -2 3.7 0.8
v -1.9 3.7 0.8
v -2 3.7 0
v -1.9 3.7 0
v -2 3.7 -0.4
v -1.9 3.7 -0.4
v -2 3.7 -1.2
v -1.9 3.7 -1.2
v -2 3.7 -1.6
v -1.9 3.7 -1.6
v -2 3.7 -2.4
v -1.9 3.7 -2.4
v 0.6 4.8 -0.3
v 1.3 4.8 -0.3
v 0.7 4.8 -0.4
v 1.2 4.8 -0.4
v 0.7 4.8 -0.9
v 1.2 4.8 -0.9
v 0.6 4.8 -1
v 1.3 4.8 -1
v -2 0.1 2
v -1.6 0.1 2
v -2 0.1 0
v -1.6 0.1 0
v -2.2 0.2 3.2
v 2.2 0.2 3.2
v -2 0.2 3
v 2 0.2 3
v -2.2 0.2 2.1
v -2 0.2 2.1
v -2.2 0.2 -0.1
v -2 0.2 -0.1
v -2 0.2 -3
v 2 0.2 -3
v -2.2 0.2 -3.2
v 2.2 0.2 -3.2
v -1.4 1.4 3.1
v -0.6 1.4 3.1
v 0.6 1.4 3.1
v 1.4 1.4 3.1
v -1.4 1.4 3
v -0.6 1.4 3
v 0.6 1.4 3
v 1.4 1.4 3
v -2 1.4 -0.4
v -1.9 1.4 -0.4
v -2 1.4 -1.2
v -1.9 1.4 -1.2
v -2 1.4 -1.6
v -1.8 1.4 -1.6
v -2 1.4 -2.4
v -1.8 1.4 -2.4
v -1.3 2 3
v -0.6 2 3
v 0.6 2 3
v 1.3 2 3
v -1.3 2 2.9
v -0.6 2 2.9
v 0.6 2 2.9
v 1.3 2 2.9
v -2.1 3 3.1
v 2.1 3 3.1
v -2 3 3
v 2 3 3
v -2 3 -3
v 2 3 -3
v -2.1 3 -3.1
v 2.1 3 -3.1
v -2 3.2 2
v -1.9 3.2 2
v -2 3.2 1.2
v -1.9 3.2 1.2
v -2 3.2 0.8
v -1.9 3.2 0.8
v -2 3.2 0
v -1.9 3.2 0
v -2 3.2 -0.4
v -1.9 3.2 -0.4
v -2 3.2 -1.2
v -1.9 3.2 -1.2
v -2 3.2 -1.6
v -1.9 3.2 -1.6
v -2 3.2 -2.4
v -1.9 3.2 -2.4
v -1.7 3.7 2.6
v 1.7 3.7 2.6
v -0.6 3.7 2.2
v 0 3.7 2.2
v 0.6 3.7 2.2
v 1.2 3.7 2.2
v -0.6 3.7 1.6
v 0 3.7 1.6
v 0.6 3.7 1.6
v 1.2 3.7 1.6
v 0.7 3.7 -0.4
v 1.2 3.7 -0.4
v 0.7 3.7 -0.9
v 1.2 3.7 -0.9
v 0.6 3.7 -1.2
v 1.4 3.7 -1.2
v 0.6 3.7 -2.3
v 1.4 3.7 -2.3
v -1.7 3.7 -2.7
v 1.7 3.7 -2.7
v -2 4 3
v 2 4 3
v -1.7 4 2.6
v 1.7 4 2.6
v -1.7 4 -2.7
v 1.7 4 -2.7
v -2 4 -3
v 2 4 -3
v -0.6 4.2 2.2
v 0 4.2 2.2
v 0.6 4.2 2.2
v 1.2 4.2 2.2
v -0.6 4.2 1.6
v 0 4.2 1.6
v 0.6 4.2 1.6
v 1.2 4.2 1.6
v 0.6 4.4 -1.2
v 1.4 4.4 -1.2
v 0.6 4.4 -2.3
v 1.4 4.4 -2.3
v 0.6 5 -0.3
v 1.3 5 -0.3
v 0.7 5 -0.4
v 1.2 5 -0.4
v 0.8 5 -0.5
v 1.1 5 -0.5
v 0.8 5 -0.8
v 1.1 5 -0.8
v 0.7 5 -0.9
v 1.2 5 -0.9
v 0.6 5 -1
v 1.3 5 -1

# faces
f 5/7/1 2/7/1 1/7/1
f 6/7/1 2/7/1 5/7/1
f 7/7/1 4/7/1 3/7/1
f 8/7/1 4/7/1 7/7/1
f 11/8/1 10/8/1 9/8/1
f 12/8/1 10/8/1 11/8/1
f 17/1/1 14/1/1 13/1/1
f 17/2/1 15/2/1 14/2/1
f 18/1/1 16/1/1 15/1/1
f 18/2/1 15/2/1 17/2/1
f 20/1/1 17/1/1 13/1/1
f 21/1/1 16/1/1 18/1/1
f 23/8/1 22/8/1 21/8/1
f 24/8/1 22/8/1 23/8/1
f 25/8/1 22/8/1 24/8/1
f 26/8/1 22/8/1 25/8/1
f 27/8/1 23/8/1 21/8/1
f 28/8/1 25/8/1 24/8/1
f 29/8/1 25/8/1 28/8/1
f 30/8/1 22/8/1 26/8/1
f 31/8/1 20/8/1 19/8/1
f 31/1/1 17/1/1 20/1/1
f 32/1/1 17/1/1 31/1/1
f 33/1/1 21/1/1 18/1/1
f 34/8/1 30/8/1 29/8/1
f 34/8/1 29/8/1 28/8/1
f 34/1/1 21/1/1 33/1/1
f 34/8/1 27/8/1 21/8/1
f 34/8/1 28/8/1 27/8/1
f 35/8/1 33/8/1 32/8/1
f 35/8/1 32/8/1 31/8/1
f 35/8/1 34/8/1 33/8/1
f 35/8/1 31/8/1 19/8/1
f 36/8/1 30/8/1 34/8/1
f 36/8/1 34/8/1 35/8/1
f 36/8/1 22/8/1 30/8/1
f 39/8/1 38/8/1 37/8/1
f 40/8/1 38/8/1 39/8/1
f 41/8/1 38/8/1 40/8/1
f 42/8/1 38/8/1 41/8/1
f 43/8/1 38/8/1 42/8/1
f 44/8/1 38/8/1 43/8/1
f 45/8/1 38/8/1 44/8/1
f 46/8/1 38/8/1 45/8/1
f 47/8/1 39/8/1 37/8/1
f 48/8/1 41/8/1 40/8/1
f 49/8/1 41/8/1 48/8/1
f 50/8/1 43/8/1 42/8/1
f 51/8/1 43/8/1 50/8/1
f 52/8/1 45/8/1 44/8/1
f 53/8/1 45/8/1 52/8/1
f 54/8/1 38/8/1 46/8/1
f 55/8/1 53/8/1 52/8/1
f 55/8/1 54/8/1 53/8/1
f 55/8/1 51/8/1 50/8/1
f 55/8/1 47/8/1 37/8/1
f 55/8/1 52/8/1 51/8/1
f 55/8/1 49/8/1 48/8/1
f 55/8/1 50/8/1 49/8/1
f 55/8/1 48/8/1 47/8/1
f 56/8/1 38/8/1 54/8/1
f 56/8/1 54/8/1 55/8/1
f 61/6/1 58/6/1 57/6/1
f 62/6/1 58/6/1 61/6/1
f 63/5/1 62/5/1 61/5/1
f 64/5/1 62/5/1 63/5/1
f 65/9/1 60/9/1 59/9/1
f 66/9/1 60/9/1 65/9/1
f 67/6/1 64/6/1 63/6/1
f 68/6/1 64/6/1 67/6/1
f 77/9/1 70/9/1 69/9/1
f 78/9/1 70/9/1 77/9/1
f 79/9/1 72/9/1 71/9/1
f 80/9/1 72/9/1 79/9/1
f 81/9/1 74/9/1 73/9/1
f 82/9/1 74/9/1 81/9/1
f 83/9/1 76/9/1 75/9/1
f 84/9/1 76/9/1 83/9/1
f 87/9/1 86/9/1 85/9/1
f 88/9/1 86/9/1 87/9/1
f 91/1/1 90/1/1 89/1/1
f 92/1/1 90/1/1 91/1/1
f 95/8/1 94/8/1 93/8/1
f 96/8/1 94/8/1 95/8/1
f 99/8/1 98/8/1 97/8/1
f 100/8/1 98/8/1 99/8/1
f 103/8/1 102/8/1 101/8/1
f 104/8/1 102/8/1 103/8/1
f 105/7/1 104/7/1 103/7/1
f 106/7/1 104/7/1 105/7/1
f 109/8/1 108/8/1 107/8/1
f 110/8/1 108/8/1 109/8/1
f 115/8/1 112/8/1 111/8/1
f 116/8/1 112/8/1 115/8/1
f 117/7/1 116/7/1 115/7/1
f 118/7/1 116/7/1 117/7/1
f 119/8/1 114/8/1 113/8/1
f 120/8/1 114/8/1 119/8/1
f 121/7/1 120/7/1 119/7/1
f 122/7/1 120/7/1 121/7/1
f 125/7/1 124/7/1 123/7/1
f 126/7/1 124/7/1 125/7/1
f 129/8/1 128/8/1 127/8/1
f 130/8/1 128/8/1 129/8/1
f 133/8/1 132/8/1 131/8/1
f 134/8/1 132/8/1 133/8/1
f 137/8/1 136/8/1 135/8/1
f 138/8/1 136/8/1 137/8/1
f 139/8/2 140/8/2 141/8/2
f 141/8/2 140/8/2 142/8/2
f 143/8/2 144/8/2 145/8/2
f 145/8/2 144/8/2 146/8/2
f 147/8/2 148/8/2 149/8/2
f 149/8/2 148/8/2 150/8/2
f 151/8/2 152/8/2 153/8/2
f 153/8/2 152/8/2 154/8/2
f 153/7/2 154/7/2 155/7/2
f 155/7/2 154/7/2 156/7/2
f 157/8/2 158/8/2 159/8/2
f 159/8/2 158/8/2 160/8/2
f 161/8/2 162/8/2 165/8/2
f 165/8/2 162/8/2 166/8/2
f 165/7/2 166/7/2 167/7/2
f 167/7/2 166/7/2 168/7/2
f 163/8/2 164/8/2 169/8/2
f 169/8/2 164/8/2 170/8/2
f 171/7/2 172/7/2 173/7/2
f 173/7/2 172/7/2 174/7/2
f 175/8/2 176/8/2 177/8/2
f 177/8/2 176/8/2 178/8/2
f 179/8/2 180/8/2 181/8/2
f 181/8/2 180/8/2 182/8/2
f 181/7/2 182/7/2 183/7/2
f 183/7/2 182/7/2 184/7/2
f 185/8/2 186/8/2 187/8/2
f 187/8/2 186/8/2 188/8/2
f 189/8/2 190/8/2 191/8/2
f 191/8/2 190/8/2 192/8/2
f 193/8/2 194/8/2 195/8/2
f 195/8/2 194/8/2 196/8/2
f 197/7/2 198/7/2 199/7/2
f 199/7/2 198/7/2 200/7/2
f 203/7/3 202/7/3 201/7/3
f 204/7/3 202/7/3 203/7/3
f 209/8/3 208/8/3 207/8/3
f 210/8/3 208/8/3 209/8/3
f 211/8/3 208/8/3 210/8/3
f 212/8/3 208/8/3 211/8/3
f 213/8/3 208/8/3 212/8/3
f 214/8/3 208/8/3 213/8/3
f 215/8/3 208/8/3 214/8/3
f 216/8/3 208/8/3 215/8/3
f 217/8/3 209/8/3 207/8/3
f 217/3/3 210/3/3 209/3/3
f 218/8/3 211/8/3 210/8/3
f 218/3/3 210/3/3 217/3/3
f 219/3/3 212/3/3 211/3/3
f 219/8/3 211/8/3 218/8/3
f 220/8/3 213/8/3 212/8/3
f 220/3/3 212/3/3 219/3/3
f 221/3/3 214/3/3 213/3/3
f 221/8/3 213/8/3 220/8/3
f 222/8/3 215/8/3 214/8/3
f 222/3/3 214/3/3 221/3/3
f 223/3/3 216/3/3 215/3/3
f 223/8/3 215/8/3 222/8/3
f 224/8/3 208/8/3 216/8/3
f 224/3/3 216/3/3 223/3/3
f 225/8/3 223/8/3 222/8/3
f 225/8/3 222/8/3 221/8/3
f 225/8/3 224/8/3 223/8/3
f 225/8/3 221/8/3 220/8/3
f 225/8/3 220/8/3 219/8/3
f 225/8/3 219/8/3 218/8/3
f 225/8/3 218/8/3 217/8/3
f 225/8/3 217/8/3 207/8/3
f 226/8/3 208/8/3 224/8/3
f 226/8/3 224/8/3 225/8/3
f 229/8/3 228/8/3 227/8/3
f 230/8/3 228/8/3 229/8/3
f 231/8/3 228/8/3 230/8/3
f 232/8/3 228/8/3 231/8/3
f 233/8/3 228/8/3 232/8/3
f 234/8/3 228/8/3 233/8/3
f 235/8/3 228/8/3 234/8/3
f 236/8/3 228/8/3 235/8/3
f 237/8/3 229/8/3 227/8/3
f 237/3/3 230/3/3 229/3/3
f 238/8/3 231/8/3 230/8/3
f 238/3/3 230/3/3 237/3/3
f 239/3/3 232/3/3 231/3/3
f 239/8/3 231/8/3 238/8/3
f 240/8/3 233/8/3 232/8/3
f 240/3/3 232/3/3 239/3/3
f 241/3/3 234/3/3 233/3/3
f 241/8/3 233/8/3 240/8/3
f 242/8/3 235/8/3 234/8/3
f 242/3/3 234/3/3 241/3/3
f 243/3/3 236/3/3 235/3/3
f 243/8/3 235/8/3 242/8/3
f 244/8/3 228/8/3 236/8/3
f 244/3/3 236/3/3 243/3/3
f 245/8/3 243/8/3 242/8/3
f 245/8/3 242/8/3 241/8/3
f 245/8/3 244/8/3 243/8/3
f 245/8/3 241/8/3 240/8/3
f 245/8/3 240/8/3 239/8/3
f 245/8/3 239/8/3 238/8/3
f 245/8/3 238/8/3 237/8/3
f 245/8/3 237/8/3 227/8/3
f 246/8/3 228/8/3 244/8/3
f 246/8/3 244/8/3 245/8/3
f 247/8/3 206/8/3 205/8/3
f 248/8/3 206/8/3 247/8/3
f 253/8/3 250/8/3 249/8/3
f 254/8/3 250/8/3 253/8/3
f 255/8/3 250/8/3 254/8/3
f 256/8/3 250/8/3 255/8/3
f 257/8/3 253/8/3 249/8/3
f 258/8/3 255/8/3 254/8/3
f 259/8/3 255/8/3 258/8/3
f 260/8/3 250/8/3 256/8/3
f 261/8/3 259/8/3 258/8/3
f 261/8/3 260/8/3 259/8/3
f 261/8/3 257/8/3 249/8/3
f 261/8/3 258/8/3 257/8/3
f 262/8/3 260/8/3 261/8/3
f 263/8/3 260/8/3 262/8/3
f 264/8/3 250/8/3 260/8/3
f 264/8/3 260/8/3 263/8/3
f 265/8/3 263/8/3 262/8/3
f 266/8/3 250/8/3 264/8/3
f 267/8/3 261/8/3 249/8/3
f 268/8/3 265/8/3 262/8/3
f 268/8/3 266/8/3 265/8/3
f 269/8/3 267/8/3 249/8/3
f 269/8/3 268/8/3 267/8/3
f 270/8/3 266/8/3 268/8/3
f 270/8/3 268/8/3 269/8/3
f 270/8/3 250/8/3 266/8/3
f 271/8/3 252/8/3 251/8/3
f 272/8/3 252/8/3 271/8/3
f 275/9/3 274/9/3 273/9/3
f 276/9/3 274/9/3 275/9/3
f 279/9/3 278/9/3 277/9/3
f 280/9/3 278/9/3 279/9/3
f 284/8/3 282/8/3 281/8/3
f 285/7/3 283/7/3 282/7/3
f 285/8/3 282/8/3 284/8/3
f 286/7/3 283/7/3 285/7/3
f 290/8/3 288/8/3 287/8/3
f 291/7/3 289/7/3 288/7/3
f 291/8/3 288/8/3 290/8/3
f 292/7/3 289/7/3 291/7/3
f 295/8/3 294/8/3 293/8/3
f 296/8/3 294/8/3 295/8/3
f 301/1/3 298/1/3 297/1/3
f 302/1/3 298/1/3 301/1/3
f 303/1/3 298/1/3 302/1/3
f 304/1/3 298/1/3 303/1/3
f 305/8/3 300/8/3 299/8/3
f 306/8/3 300/8/3 305/8/3
f 307/1/3 301/1/3 297/1/3
f 308/1/3 307/1/3 297/1/3
f 309/1/3 308/1/3 297/1/3
f 310/1/3 308/1/3 309/1/3
f 313/7/3 312/7/3 311/7/3
f 314/7/3 312/7/3 313/7/3
f 317/7/3 316/7/3 315/7/3
f 318/7/3 316/7/3 317/7/3
f 321/8/3 320/8/3 319/8/3
f 322/8/3 320/8/3 321/8/3
f 327/8/3 324/8/3 323/8/3
f 328/8/3 324/8/3 327/8/3
f 329/8/3 326/8/3 325/8/3
f 330/8/3 326/8/3 329/8/3
f 334/8/3 332/8/3 331/8/3
f 335/7/3 333/7/3 332/7/3
f 335/8/3 332/8/3 334/8/3
f 336/7/3 333/7/3 335/7/3
f 341/8/3 340/8/3 339/8/3
f 342/8/3 340/8/3 341/8/3
f 343/8/3 338/8/3 337/8/3
f 344/8/3 338/8/3 343/8/3
f 347/8/3 346/8/3 345/8/3
f 348/8/3 346/8/3 347/8/3
f 349/8/4 350/8/4 351/8/4
f 351/8/4 350/8/4 352/8/4
f 353/7/4 354/7/4 355/7/4
f 355/7/4 354/7/4 356/7/4
f 357/1/4 358/1/4 361/1/4
f 361/1/4 358/1/4 362/1/4
f 362/1/4 358/1/4 363/1/4
f 363/1/4 358/1/4 364/1/4
f 359/8/4 360/8/4 365/8/4
f 365/8/4 360/8/4 366/8/4
f 357/1/4 361/1/4 367/1/4
f 357/1/4 367/1/4 368/1/4
f 357/1/4 368/1/4 369/1/4
f 369/1/4 368/1/4 370/1/4
f 371/8/4 372/8/4 374/8/4
f 372/7/4 373/7/4 375/7/4
f 374/8/4 372/8/4 375/8/4
f 375/7/4 373/7/4 376/7/4
f 377/8/4 378/8/4 380/8/4
f 378/7/4 379/7/4 381/7/4
f 380/8/4 378/8/4 381/8/4
f 381/7/4 379/7/4 382/7/4
f 383/8/4 384/8/4 385/8/4
f 385/8/4 384/8/4 386/8/4
f 387/8/4 388/8/4 391/8/4
f 391/8/4 388/8/4 392/8/4
f 389/8/4 390/8/4 393/8/4
f 393/8/4 390/8/4 394/8/4
f 395/8/4 396/8/4 397/8/4
f 397/8/4 396/8/4 398/8/4
f 399/7/4 400/7/4 401/7/4
f 401/7/4 400/7/4 402/7/4
f 405/8/4 406/8/4 407/8/4
f 407/8/4 406/8/4 408/8/4
f 403/8/4 404/8/4 409/8/4
f 409/8/4 404/8/4 410/8/4
f 411/8/4 412/8/4 414/8/4
f 412/7/4 413/7/4 415/7/4
f 414/8/4 412/8/4 415/8/4
f 415/7/4 413/7/4 416/7/4
f 417/8/4 418/8/4 421/8/4
f 421/8/4 418/8/4 422/8/4
f 419/8/4 420/8/4 423/8/4
f 423/8/4 420/8/4 424/8/4
f 425/8/4 426/8/4 427/8/4
f 427/8/4 426/8/4 428/8/4
f 429/7/4 430/7/4 431/7/4
f 431/7/4 430/7/4 432/7/4
f 435/7/5 434/7/5 433/7/5
f 436/7/5 434/7/5 435/7/5
f 437/7/5 435/7/5 433/7/5
f 438/8/5 436/8/5 435/8/5
f 438/7/5 435/7/5 437/7/5
f 439/8/5 436/8/5 438/8/5
f 440/1/5 439/1/5 438/1/5
f 441/8/5 436/8/5 439/8/5
f 441/1/5 439/1/5 440/1/5
f 442/8/5 436/8/5 441/8/5
f 443/2/5 441/2/5 440/2/5
f 444/1/5 442/1/5 441/1/5
f 444/2/5 441/2/5 443/2/5
f 445/8/5 436/8/5 442/8/5
f 445/1/5 442/1/5 444/1/5
f 447/1/5 444/1/5 443/1/5
f 448/8/5 445/8/5 444/8/5
f 448/1/5 444/1/5 447/1/5
f 449/7/5 447/7/5 446/7/5
f 449/8/5 448/8/5 447/8/5
f 450/7/5 434/7/5 436/7/5
f 450/8/5 448/8/5 449/8/5
f 450/8/5 436/8/5 445/8/5
f 450/8/5 445/8/5 448/8/5
f 451/7/5 449/7/5 446/7/5
f 451/7/5 450/7/5 449/7/5
f 452/7/5 434/7/5 450/7/5
f 452/7/5 450/7/5 451/7/5
f 457/8/5 454/8/5 453/8/5
f 458/8/5 454/8/5 457/8/5
f 459/8/5 456/8/5 455/8/5
f 460/8/5 456/8/5 459/8/5
f 465/6/5 462/6/5 461/6/5
f 466/1/5 463/1/5 462/1/5
f 466/6/5 462/6/5 465/6/5
f 467/8/5 464/8/5 463/8/5
f 467/1/5 463/1/5 466/1/5
f 468/8/5 464/8/5 467/8/5
f 471/8/5 470/8/5 469/8/5
f 472/8/5 470/8/5 471/8/5
f 475/8/5 474/8/5 473/8/5
f 476/8/5 474/8/5 475/8/5
f 479/8/5 478/8/5 477/8/5
f 480/8/5 478/8/5 479/8/5
f 485/8/5 482/8/5 481/8/5
f 486/8/5 482/8/5 485/8/5
f 487/8/5 484/8/5 483/8/5
f 488/8/5 484/8/5 487/8/5
f 491/8/5 490/8/5 489/8/5
f 492/8/5 490/8/5 491/8/5
f 493/8/5 491/8/5 489/8/5
f 494/8/5 490/8/5 492/8/5
f 495/8/5 493/8/5 489/8/5
f 495/8/5 494/8/5 493/8/5
f 496/8/5 490/8/5 494/8/5
f 496/8/5 494/8/5 495/8/5
f 499/8/5 498/8/5 497/8/5
f 500/8/5 498/8/5 499/8/5
f 503/8/5 502/8/5 501/8/5
f 504/8/5 502/8/5 503/8/5
f 507/8/5 506/8/5 505/8/5
f 508/8/5 506/8/5 507/8/5
f 511/8/5 510/8/5 509/8/5
f 512/8/5 510/8/5 511/8/5
f 515/7/5 514/7/5 513/7/5
f 516/7/5 514/7/5 515/7/5
f 517/7/5 515/7/5 513/7/5
f 518/7/5 514/7/5 516/7/5
f 519/7/5 517/7/5 513/7/5
f 519/7/5 518/7/5 517/7/5
f 520/7/5 514/7/5 518/7/5
f 520/7/5 518/7/5 519/7/5
f 521/2/6 522/2/6 523/2/6
f 523/2/6 522/2/6 524/2/6
f 525/7/6 526/7/6 527/7/6
f 527/7/6 526/7/6 528/7/6
f 525/7/6 527/7/6 529/7/6
f 529/7/6 527/7/6 530/7/6
f 531/7/6 532/7/6 533/7/6
f 528/7/6 526/7/6 534/7/6
f 531/7/6 533/7/6 535/7/6
f 533/7/6 534/7/6 535/7/6
f 534/7/6 526/7/6 536/7/6
f 535/7/6 534/7/6 536/7/6
f 537/8/6 538/8/6 541/8/6
f 541/8/6 538/8/6 542/8/6
f 539/8/6 540/8/6 543/8/6
f 543/8/6 540/8/6 544/8/6
f 545/8/6 546/8/6 547/8/6
f 547/8/6 546/8/6 548/8/6
f 549/8/6 550/8/6 551/8/6
f 551/8/6 550/8/6 552/8/6
f 553/8/6 554/8/6 557/8/6
f 557/8/6 554/8/6 558/8/6
f 555/8/6 556/8/6 559/8/6
f 559/8/6 556/8/6 560/8/6
f 561/8/6 562/8/6 563/8/6
f 563/8/6 562/8/6 564/8/6
f 561/8/6 563/8/6 565/8/6
f 564/8/6 562/8/6 566/8/6
f 561/8/6 565/8/6 567/8/6
f 565/8/6 566/8/6 567/8/6
f 566/8/6 562/8/6 568/8/6
f 567/8/6 566/8/6 568/8/6
f 569/8/6 570/8/6 571/8/6
f 571/8/6 570/8/6 572/8/6
f 573/8/6 574/8/6 575/8/6
f 575/8/6 574/8/6 576/8/6
f 577/8/6 578/8/6 579/8/6
f 579/8/6 578/8/6 580/8/6
f 581/8/6 582/8/6 583/8/6
f 583/8/6 582/8/6 584/8/6
f 585/3/6 586/3/6 587/3/6
f 587/3/6 586/3/6 588/3/6
f 588/3/6 586/3/6 589/3/6
f 589/3/6 586/3/6 590/3/6
f 585/3/6 587/3/6 591/3/6
f 588/3/6 589/3/6 592/3/6
f 592/3/6 589/3/6 593/3/6
f 590/3/6 586/3/6 594/3/6
f 592/3/6 593/3/6 595/3/6
f 593/3/6 594/3/6 595/3/6
f 591/3/6 592/3/6 595/3/6
f 594/3/6 586/3/6 596/3/6
f 595/3/6 594/3/6 596/3/6
f 591/3/6 595/3/6 597/3/6
f 596/3/6 586/3/6 598/3/6
f 591/3/6 597/3/6 599/3/6
f 597/3/6 598/3/6 599/3/6
f 598/3/6 586/3/6 600/3/6
f 599/3/6 598/3/6 600/3/6
f 591/3/6 599/3/6 601/3/6
f 600/3/6 586/3/6 602/3/6
f 591/3/6 601/3/6 603/3/6
f 601/3/6 602/3/6 603/3/6
f 585/3/6 591/3/6 603/3/6
f 602/3/6 586/3/6 604/3/6
f 603/3/6 602/3/6 604/3/6
f 605/8/6 606/8/6 607/8/6
f 607/8/6 606/8/6 608/8/6
f 605/8/6 607/8/6 609/8/6
f 608/8/6 606/8/6 610/8/6
f 605/8/6 609/8/6 611/8/6
f 609/8/6 610/8/6 611/8/6
f 610/8/6 606/8/6 612/8/6
f 611/8/6 610/8/6 612/8/6
f 613/7/6 614/7/6 617/7/6
f 617/7/6 614/7/6 618/7/6
f 615/7/6 616/7/6 619/7/6
f 619/7/6 616/7/6 620/7/6
f 621/7/6 622/7/6 623/7/6
f 623/7/6 622/7/6 624/7/6
f 625/7/6 626/7/6 627/7/6
f 627/7/6 626/7/6 628/7/6
f 627/8/6 628/8/6 629/8/6
f 629/8/6 628/8/6 630/8/6
f 627/8/6 629/8/6 631/8/6
f 629/3/6 630/3/6 631/3/6
f 630/8/6 628/8/6 632/8/6
f 631/3/6 630/3/6 632/3/6
f 625/7/6 627/7/6 633/7/6
f 627/8/6 631/8/6 633/8/6
f 631/8/6 632/8/6 633/8/6
f 632/8/6 628/8/6 634/8/6
f 633/8/6 632/8/6 634/8/6
f 628/7/6 626/7/6 634/7/6
f 625/7/6 633/7/6 635/7/6
f 633/7/6 634/7/6 635/7/6
f 634/7/6 626/7/6 636/7/6
f 635/7/6 634/7/6 636/7/6
