# MagicaVoxel @ Ephtracy

# group
o 

# material
mtllib ParTile01.mtl
usemtl palette

# normals
vn -1 0 0
vn 1 0 0
vn 0 0 1
vn 0 0 -1
vn 0 -1 0
vn 0 1 0

# texcoords
vt 0.0722656 0.5
vt 0.0761719 0.5
vt 0.0800781 0.5
vt 0.142578 0.5
vt 0.146484 0.5
vt 0.150391 0.5

# verts
v -1.5 0 1.5
v -1.5 0 -1.5
v -1.5 0.2 1.5
v -1.5 0.2 -1.5
v -1.5 0.3 0.5
v -1.5 0.3 -0.5
v -1.5 0.4 1.5
v -1.5 0.4 0.5
v -1.5 0.4 -0.5
v -1.5 0.4 -1.5
v -1.2 0.4 -0.8
v -1.2 0.4 -1.2
v -1.2 0.8 -0.8
v -1.2 0.8 -1.2
v -1.1 0.8 -0.9
v -1.1 0.8 -1.1
v -1.1 0.9 -0.9
v -1.1 0.9 -1.1
v -0.4 0.4 -0.8
v -0.4 0.4 -0.9
v -0.4 0.4 -1.1
v -0.4 0.4 -1.2
v -0.4 0.6 -0.8
v -0.4 0.6 -0.9
v -0.4 0.6 -1.1
v -0.4 0.6 -1.2
v -0.4 0.7 -0.8
v -0.4 0.7 -0.9
v -0.4 0.7 -1.1
v -0.4 0.9 -1.1
v -0.4 0.9 -1.2
v -0.4 1 -1.1
v -0.4 1 -1.2
v 0.3 0.4 -0.8
v 0.3 0.4 -0.9
v 0.3 0.4 -1.1
v 0.3 0.4 -1.2
v 0.3 0.6 -0.8
v 0.3 0.6 -0.9
v 0.3 0.6 -1.1
v 0.3 0.6 -1.2
v 0.8 0.4 -0.8
v 0.8 0.4 -1.2
v 0.8 0.8 -0.8
v 0.8 0.8 -1.2
v 0.9 0.8 -0.9
v 0.9 0.8 -1.1
v 0.9 0.9 -0.9
v 0.9 0.9 -1.1
v -0.9 0.8 -0.9
v -0.9 0.8 -1.1
v -0.9 0.9 -0.9
v -0.9 0.9 -1.1
v -0.8 0.4 -0.8
v -0.8 0.4 -1.2
v -0.8 0.8 -0.8
v -0.8 0.8 -1.2
v -0.3 0.4 -0.8
v -0.3 0.4 -0.9
v -0.3 0.4 -1.1
v -0.3 0.4 -1.2
v -0.3 0.6 -0.8
v -0.3 0.6 -0.9
v -0.3 0.6 -1.1
v -0.3 0.6 -1.2
v 0.4 0.4 -0.8
v 0.4 0.4 -0.9
v 0.4 0.4 -1.1
v 0.4 0.4 -1.2
v 0.4 0.6 -0.8
v 0.4 0.6 -0.9
v 0.4 0.6 -1.1
v 0.4 0.6 -1.2
v 0.4 0.7 -0.8
v 0.4 0.7 -0.9
v 0.4 0.7 -1.1
v 0.4 0.9 -1.1
v 0.4 0.9 -1.2
v 0.4 1 -1.1
v 0.4 1 -1.2
v 1.1 0.8 -0.9
v 1.1 0.8 -1.1
v 1.1 0.9 -0.9
v 1.1 0.9 -1.1
v 1.2 0.4 -0.8
v 1.2 0.4 -1.2
v 1.2 0.8 -0.8
v 1.2 0.8 -1.2
v 1.5 0 1.5
v 1.5 0 -1.5
v 1.5 0.2 1.5
v 1.5 0.2 -1.5
v 1.5 0.3 0.5
v 1.5 0.3 -0.5
v 1.5 0.4 1.5
v 1.5 0.4 0.5
v 1.5 0.4 -0.5
v 1.5 0.4 -1.5
v -1.5 0 1.5
v -1.5 0.2 1.5
v -1.5 0.4 1.5
v 1.5 0 1.5
v 1.5 0.2 1.5
v 1.5 0.4 1.5
v -1.2 0.4 -0.8
v -1.2 0.8 -0.8
v -0.8 0.4 -0.8
v -0.8 0.8 -0.8
v -0.4 0.4 -0.8
v -0.4 0.6 -0.8
v -0.4 0.7 -0.8
v -0.3 0.4 -0.8
v -0.3 0.6 -0.8
v 0.3 0.4 -0.8
v 0.3 0.6 -0.8
v 0.4 0.4 -0.8
v 0.4 0.6 -0.8
v 0.4 0.7 -0.8
v 0.8 0.4 -0.8
v 0.8 0.8 -0.8
v 1.2 0.4 -0.8
v 1.2 0.8 -0.8
v -1.1 0.8 -0.9
v -1.1 0.9 -0.9
v -0.9 0.8 -0.9
v -0.9 0.9 -0.9
v 0.9 0.8 -0.9
v 0.9 0.9 -0.9
v 1.1 0.8 -0.9
v 1.1 0.9 -0.9
v -0.4 0.4 -1.1
v -0.4 0.6 -1.1
v -0.4 0.7 -1.1
v -0.4 0.9 -1.1
v -0.4 1 -1.1
v -0.3 0.4 -1.1
v -0.3 0.6 -1.1
v 0.3 0.4 -1.1
v 0.3 0.6 -1.1
v 0.4 0.4 -1.1
v 0.4 0.6 -1.1
v 0.4 0.7 -1.1
v 0.4 0.9 -1.1
v 0.4 1 -1.1
v -0.4 0.4 -0.9
v -0.4 0.6 -0.9
v -0.3 0.4 -0.9
v -0.3 0.6 -0.9
v 0.3 0.4 -0.9
v 0.3 0.6 -0.9
v 0.4 0.4 -0.9
v 0.4 0.6 -0.9
v -1.1 0.8 -1.1
v -1.1 0.9 -1.1
v -0.9 0.8 -1.1
v -0.9 0.9 -1.1
v 0.9 0.8 -1.1
v 0.9 0.9 -1.1
v 1.1 0.8 -1.1
v 1.1 0.9 -1.1
v -1.2 0.4 -1.2
v -1.2 0.8 -1.2
v -0.8 0.4 -1.2
v -0.8 0.8 -1.2
v -0.4 0.4 -1.2
v -0.4 0.6 -1.2
v -0.4 0.9 -1.2
v -0.4 1 -1.2
v -0.3 0.4 -1.2
v -0.3 0.6 -1.2
v 0.3 0.4 -1.2
v 0.3 0.6 -1.2
v 0.4 0.4 -1.2
v 0.4 0.6 -1.2
v 0.4 0.9 -1.2
v 0.4 1 -1.2
v 0.8 0.4 -1.2
v 0.8 0.8 -1.2
v 1.2 0.4 -1.2
v 1.2 0.8 -1.2
v -1.5 0 -1.5
v -1.5 0.2 -1.5
v -1.5 0.4 -1.5
v 1.5 0 -1.5
v 1.5 0.2 -1.5
v 1.5 0.4 -1.5
v -1.5 0 1.5
v 1.5 0 1.5
v -1.5 0 -1.5
v 1.5 0 -1.5
v -0.3 0.6 -0.8
v 0.3 0.6 -0.8
v -0.4 0.6 -0.9
v -0.3 0.6 -0.9
v 0.3 0.6 -0.9
v 0.4 0.6 -0.9
v -0.4 0.6 -1.1
v -0.3 0.6 -1.1
v 0.3 0.6 -1.1
v 0.4 0.6 -1.1
v -0.3 0.6 -1.2
v 0.3 0.6 -1.2
v -1.5 0.4 1.5
v 1.5 0.4 1.5
v -1.5 0.4 0.5
v 1.5 0.4 0.5
v -0.3 0.4 0.3
v -0.2 0.4 0.3
v 0.6 0.4 0.3
v 0.7 0.4 0.3
v 1.2 0.4 0.3
v 1.3 0.4 0.3
v -0.9 0.4 0.2
v -0.8 0.4 0.2
v -0.3 0.4 0.2
v -0.2 0.4 0.2
v 0.6 0.4 0.2
v 0.7 0.4 0.2
v 1.2 0.4 0.2
v 1.3 0.4 0.2
v -0.9 0.4 0.1
v -0.8 0.4 0.1
v -1.2 0.4 0
v -1.1 0.4 0
v 0.2 0.4 0
v 0.3 0.4 0
v -1.2 0.4 -0.1
v -1.1 0.4 -0.1
v 0.2 0.4 -0.1
v 0.3 0.4 -0.1
v -0.7 0.4 -0.2
v -0.6 0.4 -0.2
v -0.1 0.4 -0.2
v 0 0.4 -0.2
v 1 0.4 -0.2
v 1.1 0.4 -0.2
v -0.7 0.4 -0.3
v -0.6 0.4 -0.3
v -0.1 0.4 -0.3
v 0 0.4 -0.3
v 1 0.4 -0.3
v 1.1 0.4 -0.3
v -1.5 0.4 -0.5
v 1.5 0.4 -0.5
v -1.2 0.4 -0.8
v -0.8 0.4 -0.8
v -0.4 0.4 -0.8
v -0.3 0.4 -0.8
v 0.3 0.4 -0.8
v 0.4 0.4 -0.8
v 0.8 0.4 -0.8
v 1.2 0.4 -0.8
v -0.4 0.4 -0.9
v -0.3 0.4 -0.9
v 0.3 0.4 -0.9
v 0.4 0.4 -0.9
v -0.4 0.4 -1.1
v -0.3 0.4 -1.1
v 0.3 0.4 -1.1
v 0.4 0.4 -1.1
v -1.2 0.4 -1.2
v -0.8 0.4 -1.2
v -0.4 0.4 -1.2
v -0.3 0.4 -1.2
v 0.3 0.4 -1.2
v 0.4 0.4 -1.2
v 0.8 0.4 -1.2
v 1.2 0.4 -1.2
v -1.5 0.4 -1.5
v 1.5 0.4 -1.5
v -0.4 0.7 -0.8
v 0.4 0.7 -0.8
v -0.4 0.7 -0.9
v 0.4 0.7 -0.9
v -0.4 0.7 -1.1
v 0.4 0.7 -1.1
v -1.2 0.8 -0.8
v -0.8 0.8 -0.8
v 0.8 0.8 -0.8
v 1.2 0.8 -0.8
v -1.1 0.8 -0.9
v -0.9 0.8 -0.9
v 0.9 0.8 -0.9
v 1.1 0.8 -0.9
v -1.1 0.8 -1.1
v -0.9 0.8 -1.1
v 0.9 0.8 -1.1
v 1.1 0.8 -1.1
v -1.2 0.8 -1.2
v -0.8 0.8 -1.2
v 0.8 0.8 -1.2
v 1.2 0.8 -1.2
v -1.1 0.9 -0.9
v -0.9 0.9 -0.9
v 0.9 0.9 -0.9
v 1.1 0.9 -0.9
v -1.1 0.9 -1.1
v -0.9 0.9 -1.1
v 0.9 0.9 -1.1
v 1.1 0.9 -1.1
v -0.4 1 -1.1
v 0.4 1 -1.1
v -0.4 1 -1.2
v 0.4 1 -1.2

# faces
f 3/2/1 2/2/1 1/2/1
f 4/2/1 2/2/1 3/2/1
f 5/4/1 4/4/1 3/4/1
f 6/4/1 4/4/1 5/4/1
f 7/4/1 5/4/1 3/4/1
f 8/3/1 6/3/1 5/3/1
f 8/4/1 5/4/1 7/4/1
f 9/4/1 4/4/1 6/4/1
f 9/3/1 6/3/1 8/3/1
f 10/4/1 4/4/1 9/4/1
f 13/4/1 12/4/1 11/4/1
f 14/4/1 12/4/1 13/4/1
f 17/4/1 16/4/1 15/4/1
f 18/4/1 16/4/1 17/4/1
f 23/1/1 20/1/1 19/1/1
f 24/1/1 20/1/1 23/1/1
f 25/1/1 22/1/1 21/1/1
f 26/1/1 22/1/1 25/1/1
f 27/5/1 24/5/1 23/5/1
f 28/6/1 25/6/1 24/6/1
f 28/5/1 24/5/1 27/5/1
f 28/6/1 26/6/1 25/6/1
f 29/6/1 26/6/1 28/6/1
f 30/6/1 26/6/1 29/6/1
f 31/6/1 26/6/1 30/6/1
f 32/5/1 31/5/1 30/5/1
f 33/5/1 31/5/1 32/5/1
f 38/1/1 35/1/1 34/1/1
f 39/1/1 35/1/1 38/1/1
f 40/1/1 37/1/1 36/1/1
f 41/1/1 37/1/1 40/1/1
f 44/4/1 43/4/1 42/4/1
f 45/4/1 43/4/1 44/4/1
f 48/4/1 47/4/1 46/4/1
f 49/4/1 47/4/1 48/4/1
f 50/4/2 51/4/2 52/4/2
f 52/4/2 51/4/2 53/4/2
f 54/4/2 55/4/2 56/4/2
f 56/4/2 55/4/2 57/4/2
f 58/1/2 59/1/2 62/1/2
f 62/1/2 59/1/2 63/1/2
f 60/1/2 61/1/2 64/1/2
f 64/1/2 61/1/2 65/1/2
f 66/1/2 67/1/2 70/1/2
f 70/1/2 67/1/2 71/1/2
f 68/1/2 69/1/2 72/1/2
f 72/1/2 69/1/2 73/1/2
f 70/5/2 71/5/2 74/5/2
f 71/6/2 72/6/2 75/6/2
f 74/5/2 71/5/2 75/5/2
f 72/6/2 73/6/2 75/6/2
f 75/6/2 73/6/2 76/6/2
f 76/6/2 73/6/2 77/6/2
f 77/6/2 73/6/2 78/6/2
f 77/5/2 78/5/2 79/5/2
f 79/5/2 78/5/2 80/5/2
f 81/4/2 82/4/2 83/4/2
f 83/4/2 82/4/2 84/4/2
f 85/4/2 86/4/2 87/4/2
f 87/4/2 86/4/2 88/4/2
f 89/2/2 90/2/2 91/2/2
f 91/2/2 90/2/2 92/2/2
f 91/4/2 92/4/2 93/4/2
f 93/4/2 92/4/2 94/4/2
f 91/4/2 93/4/2 95/4/2
f 93/3/2 94/3/2 96/3/2
f 95/4/2 93/4/2 96/4/2
f 94/4/2 92/4/2 97/4/2
f 96/3/2 94/3/2 97/3/2
f 97/4/2 92/4/2 98/4/2
f 102/2/3 100/2/3 99/2/3
f 103/4/3 101/4/3 100/4/3
f 103/2/3 100/2/3 102/2/3
f 104/4/3 101/4/3 103/4/3
f 107/4/3 106/4/3 105/4/3
f 108/4/3 106/4/3 107/4/3
f 112/1/3 110/1/3 109/1/3
f 113/5/3 111/5/3 110/5/3
f 113/1/3 110/1/3 112/1/3
f 115/5/3 111/5/3 113/5/3
f 116/1/3 115/1/3 114/1/3
f 117/5/3 111/5/3 115/5/3
f 117/1/3 115/1/3 116/1/3
f 118/5/3 111/5/3 117/5/3
f 121/4/3 120/4/3 119/4/3
f 122/4/3 120/4/3 121/4/3
f 125/4/3 124/4/3 123/4/3
f 126/4/3 124/4/3 125/4/3
f 129/4/3 128/4/3 127/4/3
f 130/4/3 128/4/3 129/4/3
f 136/1/3 132/1/3 131/1/3
f 137/1/3 132/1/3 136/1/3
f 140/1/3 139/1/3 138/1/3
f 141/1/3 139/1/3 140/1/3
f 142/6/3 134/6/3 133/6/3
f 143/5/3 135/5/3 134/5/3
f 143/6/3 134/6/3 142/6/3
f 144/5/3 135/5/3 143/5/3
f 145/1/4 146/1/4 147/1/4
f 147/1/4 146/1/4 148/1/4
f 149/1/4 150/1/4 151/1/4
f 151/1/4 150/1/4 152/1/4
f 153/4/4 154/4/4 155/4/4
f 155/4/4 154/4/4 156/4/4
f 157/4/4 158/4/4 159/4/4
f 159/4/4 158/4/4 160/4/4
f 161/4/4 162/4/4 163/4/4
f 163/4/4 162/4/4 164/4/4
f 165/1/4 166/1/4 169/1/4
f 166/6/4 167/6/4 170/6/4
f 169/1/4 166/1/4 170/1/4
f 170/6/4 167/6/4 172/6/4
f 171/1/4 172/1/4 173/1/4
f 172/6/4 167/6/4 174/6/4
f 173/1/4 172/1/4 174/1/4
f 167/5/4 168/5/4 175/5/4
f 174/6/4 167/6/4 175/6/4
f 175/5/4 168/5/4 176/5/4
f 177/4/4 178/4/4 179/4/4
f 179/4/4 178/4/4 180/4/4
f 181/2/4 182/2/4 184/2/4
f 182/4/4 183/4/4 185/4/4
f 184/2/4 182/2/4 185/2/4
f 185/4/4 183/4/4 186/4/4
f 189/2/5 188/2/5 187/2/5
f 190/2/5 188/2/5 189/2/5
f 194/5/5 192/5/5 191/5/5
f 195/5/5 192/5/5 194/5/5
f 197/6/5 194/6/5 193/6/5
f 197/6/5 196/6/5 195/6/5
f 197/6/5 195/6/5 194/6/5
f 198/6/5 196/6/5 197/6/5
f 199/6/5 196/6/5 198/6/5
f 200/6/5 196/6/5 199/6/5
f 201/6/5 199/6/5 198/6/5
f 202/6/5 199/6/5 201/6/5
f 203/4/6 204/4/6 205/4/6
f 205/4/6 204/4/6 206/4/6
f 205/3/6 206/3/6 207/3/6
f 207/3/6 206/3/6 208/3/6
f 208/3/6 206/3/6 209/3/6
f 209/3/6 206/3/6 210/3/6
f 210/3/6 206/3/6 211/3/6
f 211/3/6 206/3/6 212/3/6
f 205/3/6 207/3/6 213/3/6
f 213/3/6 207/3/6 214/3/6
f 207/2/6 208/2/6 215/2/6
f 214/3/6 207/3/6 215/3/6
f 208/3/6 209/3/6 216/3/6
f 215/2/6 208/2/6 216/2/6
f 209/2/6 210/2/6 217/2/6
f 216/3/6 209/3/6 217/3/6
f 210/3/6 211/3/6 218/3/6
f 217/2/6 210/2/6 218/2/6
f 211/2/6 212/2/6 219/2/6
f 218/3/6 211/3/6 219/3/6
f 212/3/6 206/3/6 220/3/6
f 219/2/6 212/2/6 220/2/6
f 213/2/6 214/2/6 221/2/6
f 205/3/6 213/3/6 221/3/6
f 218/3/6 219/3/6 222/3/6
f 221/2/6 214/2/6 222/2/6
f 214/3/6 215/3/6 222/3/6
f 219/3/6 220/3/6 222/3/6
f 217/3/6 218/3/6 222/3/6
f 216/3/6 217/3/6 222/3/6
f 215/3/6 216/3/6 222/3/6
f 205/3/6 221/3/6 223/3/6
f 221/3/6 222/3/6 223/3/6
f 223/3/6 222/3/6 224/3/6
f 222/3/6 220/3/6 225/3/6
f 224/3/6 222/3/6 225/3/6
f 225/3/6 220/3/6 226/3/6
f 223/2/6 224/2/6 227/2/6
f 205/3/6 223/3/6 227/3/6
f 224/3/6 225/3/6 228/3/6
f 227/2/6 224/2/6 228/2/6
f 225/2/6 226/2/6 229/2/6
f 228/3/6 225/3/6 229/3/6
f 226/3/6 220/3/6 230/3/6
f 229/2/6 226/2/6 230/2/6
f 228/3/6 229/3/6 231/3/6
f 227/3/6 228/3/6 231/3/6
f 229/3/6 230/3/6 231/3/6
f 231/3/6 230/3/6 232/3/6
f 232/3/6 230/3/6 233/3/6
f 233/3/6 230/3/6 234/3/6
f 230/3/6 220/3/6 235/3/6
f 234/3/6 230/3/6 235/3/6
f 235/3/6 220/3/6 236/3/6
f 227/3/6 231/3/6 237/3/6
f 231/2/6 232/2/6 237/2/6
f 232/3/6 233/3/6 238/3/6
f 237/2/6 232/2/6 238/2/6
f 233/2/6 234/2/6 239/2/6
f 238/3/6 233/3/6 239/3/6
f 234/3/6 235/3/6 240/3/6
f 239/2/6 234/2/6 240/2/6
f 235/2/6 236/2/6 241/2/6
f 240/3/6 235/3/6 241/3/6
f 236/3/6 220/3/6 242/3/6
f 241/2/6 236/2/6 242/2/6
f 237/3/6 238/3/6 243/3/6
f 205/3/6 227/3/6 243/3/6
f 241/3/6 242/3/6 243/3/6
f 238/3/6 239/3/6 243/3/6
f 227/3/6 237/3/6 243/3/6
f 239/3/6 240/3/6 243/3/6
f 240/3/6 241/3/6 243/3/6
f 242/3/6 220/3/6 244/3/6
f 243/3/6 242/3/6 244/3/6
f 220/3/6 206/3/6 244/3/6
f 243/4/6 244/4/6 245/4/6
f 245/4/6 244/4/6 246/4/6
f 246/4/6 244/4/6 247/4/6
f 247/4/6 244/4/6 248/4/6
f 248/4/6 244/4/6 249/4/6
f 249/4/6 244/4/6 250/4/6
f 250/4/6 244/4/6 251/4/6
f 251/4/6 244/4/6 252/4/6
f 246/4/6 247/4/6 253/4/6
f 248/4/6 249/4/6 254/4/6
f 254/4/6 249/4/6 255/4/6
f 250/4/6 251/4/6 256/4/6
f 254/4/6 255/4/6 257/4/6
f 255/4/6 256/4/6 257/4/6
f 246/4/6 253/4/6 257/4/6
f 253/4/6 254/4/6 257/4/6
f 257/4/6 256/4/6 258/4/6
f 258/4/6 256/4/6 259/4/6
f 256/4/6 251/4/6 260/4/6
f 259/4/6 256/4/6 260/4/6
f 243/4/6 245/4/6 261/4/6
f 246/4/6 257/4/6 262/4/6
f 262/4/6 257/4/6 263/4/6
f 258/4/6 259/4/6 264/4/6
f 264/4/6 259/4/6 265/4/6
f 260/4/6 251/4/6 266/4/6
f 266/4/6 251/4/6 267/4/6
f 252/4/6 244/4/6 268/4/6
f 264/4/6 265/4/6 269/4/6
f 267/4/6 268/4/6 269/4/6
f 266/4/6 267/4/6 269/4/6
f 262/4/6 263/4/6 269/4/6
f 265/4/6 266/4/6 269/4/6
f 243/4/6 261/4/6 269/4/6
f 263/4/6 264/4/6 269/4/6
f 261/4/6 262/4/6 269/4/6
f 268/4/6 244/4/6 270/4/6
f 269/4/6 268/4/6 270/4/6
f 271/5/6 272/5/6 273/5/6
f 273/5/6 272/5/6 274/5/6
f 273/6/6 274/6/6 275/6/6
f 275/6/6 274/6/6 276/6/6
f 277/4/6 278/4/6 281/4/6
f 281/4/6 278/4/6 282/4/6
f 279/4/6 280/4/6 283/4/6
f 283/4/6 280/4/6 284/4/6
f 277/4/6 281/4/6 285/4/6
f 282/4/6 278/4/6 286/4/6
f 279/4/6 283/4/6 287/4/6
f 284/4/6 280/4/6 288/4/6
f 277/4/6 285/4/6 289/4/6
f 285/4/6 286/4/6 289/4/6
f 286/4/6 278/4/6 290/4/6
f 289/4/6 286/4/6 290/4/6
f 287/4/6 288/4/6 291/4/6
f 279/4/6 287/4/6 291/4/6
f 288/4/6 280/4/6 292/4/6
f 291/4/6 288/4/6 292/4/6
f 293/4/6 294/4/6 297/4/6
f 297/4/6 294/4/6 298/4/6
f 295/4/6 296/4/6 299/4/6
f 299/4/6 296/4/6 300/4/6
f 301/5/6 302/5/6 303/5/6
f 303/5/6 302/5/6 304/5/6
