# MagicaVoxel @ Ephtracy

# group
o 

# material
mtllib 3WayPart2.mtl
usemtl palette

# normals
vn -1 0 0
vn 1 0 0
vn 0 0 1
vn 0 0 -1
vn 0 -1 0
vn 0 1 0

# texcoords
vt 0.00976563 0.5
vt 0.0917969 0.5
vt 0.107422 0.5
vt 0.123047 0.5
vt 0.142578 0.5

# verts
v -1.5 0 1.5
v -1.5 0 -1.5
v -1.5 0.2 1.5
v -1.5 0.2 -1.5
v -1.5 0.3 1.1
v -1.5 0.3 0.9
v -1.5 0.3 -0.9
v -1.5 0.3 -1.1
v -1.5 0.4 1.5
v -1.5 0.4 1.1
v -1.5 0.4 0.9
v -1.5 0.4 -0.9
v -1.5 0.4 -1.1
v -1.5 0.4 -1.5
v 1.5 0 1.5
v 1.5 0 -1.5
v 1.5 0.2 1.5
v 1.5 0.2 -1.5
v 1.5 0.3 1.1
v 1.5 0.3 0.9
v 1.5 0.3 -0.9
v 1.5 0.3 -1.1
v 1.5 0.4 1.5
v 1.5 0.4 1.1
v 1.5 0.4 0.9
v 1.5 0.4 -0.9
v 1.5 0.4 -1.1
v 1.5 0.4 -1.5
v -1.5 0 1.5
v -1.5 0.2 1.5
v -1.5 0.4 1.5
v 1.5 0 1.5
v 1.5 0.2 1.5
v 1.5 0.4 1.5
v -1.5 0 -1.5
v -1.5 0.2 -1.5
v -1.5 0.4 -1.5
v -1.1 0.3 -1.5
v -1.1 0.4 -1.5
v -0.9 0.3 -1.5
v -0.9 0.4 -1.5
v 0.9 0.3 -1.5
v 0.9 0.4 -1.5
v 1.1 0.3 -1.5
v 1.1 0.4 -1.5
v 1.5 0 -1.5
v 1.5 0.2 -1.5
v 1.5 0.4 -1.5
v -1.5 0 1.5
v 1.5 0 1.5
v -1.5 0 -1.5
v 1.5 0 -1.5
v -1.5 0.4 1.5
v 1.5 0.4 1.5
v -1.5 0.4 1.1
v 1.5 0.4 1.1
v -1.5 0.4 0.9
v 1.5 0.4 0.9
v -1.4 0.4 0.1
v -0.6 0.4 0.1
v -0.4 0.4 0.1
v 0.4 0.4 0.1
v 0.6 0.4 0.1
v 1.4 0.4 0.1
v -1.4 0.4 -0.1
v -0.6 0.4 -0.1
v -0.4 0.4 -0.1
v -0.1 0.4 -0.1
v 0.1 0.4 -0.1
v 0.4 0.4 -0.1
v 0.6 0.4 -0.1
v 1.4 0.4 -0.1
v -0.1 0.4 -0.4
v 0.1 0.4 -0.4
v -0.1 0.4 -0.6
v 0.1 0.4 -0.6
v -1.5 0.4 -0.9
v -0.9 0.4 -0.9
v 0.9 0.4 -0.9
v 1.5 0.4 -0.9
v -1.5 0.4 -1.1
v -1.1 0.4 -1.1
v 1.1 0.4 -1.1
v 1.5 0.4 -1.1
v -0.1 0.4 -1.4
v 0.1 0.4 -1.4
v -1.5 0.4 -1.5
v -1.1 0.4 -1.5
v -0.9 0.4 -1.5
v 0.9 0.4 -1.5
v 1.1 0.4 -1.5
v 1.5 0.4 -1.5

# faces
f 3/3/1 2/3/1 1/3/1
f 4/3/1 2/3/1 3/3/1
f 5/5/1 4/5/1 3/5/1
f 6/5/1 4/5/1 5/5/1
f 7/5/1 4/5/1 6/5/1
f 8/5/1 4/5/1 7/5/1
f 9/5/1 5/5/1 3/5/1
f 10/2/1 6/2/1 5/2/1
f 10/5/1 5/5/1 9/5/1
f 11/1/1 7/1/1 6/1/1
f 11/2/1 6/2/1 10/2/1
f 12/2/1 8/2/1 7/2/1
f 12/1/1 7/1/1 11/1/1
f 13/5/1 4/5/1 8/5/1
f 13/2/1 8/2/1 12/2/1
f 14/5/1 4/5/1 13/5/1
f 15/3/2 16/3/2 17/3/2
f 17/3/2 16/3/2 18/3/2
f 17/5/2 18/5/2 19/5/2
f 19/5/2 18/5/2 20/5/2
f 20/5/2 18/5/2 21/5/2
f 21/5/2 18/5/2 22/5/2
f 17/5/2 19/5/2 23/5/2
f 19/2/2 20/2/2 24/2/2
f 23/5/2 19/5/2 24/5/2
f 20/1/2 21/1/2 25/1/2
f 24/2/2 20/2/2 25/2/2
f 21/2/2 22/2/2 26/2/2
f 25/1/2 21/1/2 26/1/2
f 22/5/2 18/5/2 27/5/2
f 26/2/2 22/2/2 27/2/2
f 27/5/2 18/5/2 28/5/2
f 32/3/3 30/3/3 29/3/3
f 33/5/3 31/5/3 30/5/3
f 33/3/3 30/3/3 32/3/3
f 34/5/3 31/5/3 33/5/3
f 36/5/4 37/5/4 38/5/4
f 38/5/4 37/5/4 39/5/4
f 36/5/4 38/5/4 40/5/4
f 38/2/4 39/2/4 40/2/4
f 40/2/4 39/2/4 41/2/4
f 36/5/4 40/5/4 42/5/4
f 40/1/4 41/1/4 42/1/4
f 42/1/4 41/1/4 43/1/4
f 36/5/4 42/5/4 44/5/4
f 42/2/4 43/2/4 44/2/4
f 44/2/4 43/2/4 45/2/4
f 35/3/4 36/3/4 46/3/4
f 36/5/4 44/5/4 47/5/4
f 46/3/4 36/3/4 47/3/4
f 44/5/4 45/5/4 47/5/4
f 47/5/4 45/5/4 48/5/4
f 51/3/5 50/3/5 49/3/5
f 52/3/5 50/3/5 51/3/5
f 53/5/6 54/5/6 55/5/6
f 55/5/6 54/5/6 56/5/6
f 55/2/6 56/2/6 57/2/6
f 57/2/6 56/2/6 58/2/6
f 57/1/6 58/1/6 59/1/6
f 59/1/6 58/1/6 60/1/6
f 60/1/6 58/1/6 61/1/6
f 61/1/6 58/1/6 62/1/6
f 62/1/6 58/1/6 63/1/6
f 63/1/6 58/1/6 64/1/6
f 57/1/6 59/1/6 65/1/6
f 59/4/6 60/4/6 65/4/6
f 60/1/6 61/1/6 66/1/6
f 65/4/6 60/4/6 66/4/6
f 61/4/6 62/4/6 67/4/6
f 66/1/6 61/1/6 67/1/6
f 67/4/6 62/4/6 68/4/6
f 68/4/6 62/4/6 69/4/6
f 62/1/6 63/1/6 70/1/6
f 69/4/6 62/4/6 70/4/6
f 63/4/6 64/4/6 71/4/6
f 70/1/6 63/1/6 71/1/6
f 64/1/6 58/1/6 72/1/6
f 71/4/6 64/4/6 72/4/6
f 65/1/6 66/1/6 73/1/6
f 68/4/6 69/4/6 73/4/6
f 66/1/6 67/1/6 73/1/6
f 67/1/6 68/1/6 73/1/6
f 70/1/6 71/1/6 74/1/6
f 73/4/6 69/4/6 74/4/6
f 69/1/6 70/1/6 74/1/6
f 71/1/6 72/1/6 74/1/6
f 65/1/6 73/1/6 75/1/6
f 73/1/6 74/1/6 75/1/6
f 74/1/6 72/1/6 76/1/6
f 75/1/6 74/1/6 76/1/6
f 65/1/6 75/1/6 77/1/6
f 57/1/6 65/1/6 77/1/6
f 77/1/6 75/1/6 78/1/6
f 76/1/6 72/1/6 79/1/6
f 72/1/6 58/1/6 80/1/6
f 79/1/6 72/1/6 80/1/6
f 77/2/6 78/2/6 81/2/6
f 81/2/6 78/2/6 82/2/6
f 79/2/6 80/2/6 83/2/6
f 83/2/6 80/2/6 84/2/6
f 78/1/6 75/1/6 85/1/6
f 75/4/6 76/4/6 85/4/6
f 76/1/6 79/1/6 86/1/6
f 85/4/6 76/4/6 86/4/6
f 81/5/6 82/5/6 87/5/6
f 82/2/6 78/2/6 88/2/6
f 87/5/6 82/5/6 88/5/6
f 78/1/6 85/1/6 89/1/6
f 88/2/6 78/2/6 89/2/6
f 85/1/6 86/1/6 89/1/6
f 86/1/6 79/1/6 90/1/6
f 89/1/6 86/1/6 90/1/6
f 79/2/6 83/2/6 90/2/6
f 83/5/6 84/5/6 91/5/6
f 90/2/6 83/2/6 91/2/6
f 91/5/6 84/5/6 92/5/6
