# MagicaVoxel @ Ephtracy

# group
o 

# material
mtllib SideWalkP4.mtl
usemtl palette

# normals
vn -1 0 0
vn 1 0 0
vn 0 0 1
vn 0 0 -1
vn 0 -1 0
vn 0 1 0

# texcoords
vt 0.0253906 0.5
vt 0.0292969 0.5
vt 0.107422 0.5

# verts
v -1.5 0 1.5
v -1.5 0 -1.5
v -1.5 0.2 1.5
v -1.5 0.2 -1.5
v -1.5 0.4 1.5
v -1.5 0.4 -1.3
v -1.5 0.4 -1.5
v -1.5 0.5 -1.3
v -1.5 0.5 -1.5
v 1.5 0 1.5
v 1.5 0 -1.5
v 1.5 0.2 1.5
v 1.5 0.2 -1.5
v 1.5 0.4 1.5
v 1.5 0.4 -1.3
v 1.5 0.4 -1.5
v 1.5 0.5 -1.3
v 1.5 0.5 -1.5
v -1.5 0 1.5
v -1.5 0.2 1.5
v -1.5 0.4 1.5
v 1.5 0 1.5
v 1.5 0.2 1.5
v 1.5 0.4 1.5
v -1.5 0.4 -1.3
v -1.5 0.5 -1.3
v 1.5 0.4 -1.3
v 1.5 0.5 -1.3
v -1.5 0 -1.5
v -1.5 0.2 -1.5
v -1.5 0.4 -1.5
v -1.5 0.5 -1.5
v 1.5 0 -1.5
v 1.5 0.2 -1.5
v 1.5 0.4 -1.5
v 1.5 0.5 -1.5
v -1.5 0 1.5
v 1.5 0 1.5
v -1.5 0 -1.5
v 1.5 0 -1.5
v -1.5 0.4 1.5
v 1.5 0.4 1.5
v -1.5 0.4 -1.3
v 1.5 0.4 -1.3
v -1.5 0.5 -1.3
v 1.5 0.5 -1.3
v -1.5 0.5 -1.5
v 1.5 0.5 -1.5

# faces
f 3/3/1 2/3/1 1/3/1
f 4/3/1 2/3/1 3/3/1
f 5/1/1 4/1/1 3/1/1
f 6/1/1 4/1/1 5/1/1
f 7/1/1 4/1/1 6/1/1
f 8/2/1 7/2/1 6/2/1
f 9/2/1 7/2/1 8/2/1
f 10/3/2 11/3/2 12/3/2
f 12/3/2 11/3/2 13/3/2
f 12/1/2 13/1/2 14/1/2
f 14/1/2 13/1/2 15/1/2
f 15/1/2 13/1/2 16/1/2
f 15/2/2 16/2/2 17/2/2
f 17/2/2 16/2/2 18/2/2
f 22/3/3 20/3/3 19/3/3
f 23/1/3 21/1/3 20/1/3
f 23/3/3 20/3/3 22/3/3
f 24/1/3 21/1/3 23/1/3
f 27/2/3 26/2/3 25/2/3
f 28/2/3 26/2/3 27/2/3
f 29/3/4 30/3/4 33/3/4
f 30/1/4 31/1/4 34/1/4
f 33/3/4 30/3/4 34/3/4
f 31/2/4 32/2/4 35/2/4
f 34/1/4 31/1/4 35/1/4
f 35/2/4 32/2/4 36/2/4
f 39/3/5 38/3/5 37/3/5
f 40/3/5 38/3/5 39/3/5
f 41/1/6 42/1/6 43/1/6
f 43/1/6 42/1/6 44/1/6
f 45/2/6 46/2/6 47/2/6
f 47/2/6 46/2/6 48/2/6
