# MagicaVoxel @ Ephtracy

# group
o 

# material
mtllib House03.mtl
usemtl palette

# normals
vn -1 0 0
vn 1 0 0
vn 0 0 1
vn 0 0 -1
vn 0 -1 0
vn 0 1 0

# texcoords
vt 0.0371094 0.5
vt 0.142578 0.5
vt 0.158203 0.5
vt 0.169922 0.5

# verts
v -3 0 1
v -3 0 -2
v -3 1.4 0.4
v -3 1.4 -0.4
v -3 1.4 -0.6
v -3 1.4 -1.4
v -3 2.5 0.4
v -3 2.5 -0.4
v -3 2.5 -0.6
v -3 2.5 -1.4
v -3 3.4 0.4
v -3 3.4 -0.4
v -3 3.4 -0.6
v -3 3.4 -1.4
v -3 4.5 0.4
v -3 4.5 -0.4
v -3 4.5 -0.6
v -3 4.5 -1.4
v -3 5.4 0.4
v -3 5.4 -0.4
v -3 5.4 -0.6
v -3 5.4 -1.4
v -3 6.5 0.4
v -3 6.5 -0.4
v -3 6.5 -0.6
v -3 6.5 -1.4
v -3 7 1
v -3 7 -2
v -2.9 1.4 0.4
v -2.9 1.4 -0.4
v -2.9 1.4 -0.6
v -2.9 1.4 -1.4
v -2.9 2.5 0.4
v -2.9 2.5 -0.4
v -2.9 2.5 -0.6
v -2.9 2.5 -1.4
v -2.9 3.4 0.4
v -2.9 3.4 -0.4
v -2.9 3.4 -0.6
v -2.9 3.4 -1.4
v -2.9 4.5 0.4
v -2.9 4.5 -0.4
v -2.9 4.5 -0.6
v -2.9 4.5 -1.4
v -2.9 5.4 0.4
v -2.9 5.4 -0.4
v -2.9 5.4 -0.6
v -2.9 5.4 -1.4
v -2.9 6.5 0.4
v -2.9 6.5 -0.4
v -2.9 6.5 -0.6
v -2.9 6.5 -1.4
v -1.6 1.4 1
v -1.6 1.4 0.9
v -1.6 2.5 1
v -1.6 2.5 0.9
v -1.6 3.4 1
v -1.6 3.4 0.9
v -1.6 4.5 1
v -1.6 4.5 0.9
v -1.6 5.4 1
v -1.6 5.4 0.9
v -1.6 6.5 1
v -1.6 6.5 0.9
v -0.6 1.4 1
v -0.6 1.4 0.9
v -0.6 2.5 1
v -0.6 2.5 0.9
v -0.6 3.4 1
v -0.6 3.4 0.9
v -0.6 4.5 1
v -0.6 4.5 0.9
v -0.6 5.4 1
v -0.6 5.4 0.9
v -0.6 6.5 1
v -0.6 6.5 0.9
v -0.3 6.7 0.7
v -0.3 6.7 -1.7
v -0.3 7 0.7
v -0.3 7 -1.7
v 2.38419e-007 0 2
v 2.38419e-007 0 1
v 2.38419e-007 4 2
v 2.38419e-007 4 1
v 2.7 0.3 2
v 2.7 0.3 1.9
v 2.7 0.6 2
v 2.7 0.6 1.9
v 2.7 1.3 2
v 2.7 1.3 1.9
v 2.7 1.6 2
v 2.7 1.6 1.9
v 2.7 2.3 2
v 2.7 2.3 1.9
v 2.7 2.6 2
v 2.7 2.6 1.9
v 2.7 3.3 2
v 2.7 3.3 1.9
v 2.7 3.6 2
v 2.7 3.6 1.9
v 2.7 3.7 1.7
v 2.7 3.7 -1.7
v 2.7 4 1.7
v 2.7 4 -1.7
v -2.7 6.7 0.7
v -2.7 6.7 -1.7
v -2.7 7 0.7
v -2.7 7 -1.7
v -2.4 1.4 1
v -2.4 1.4 0.9
v -2.4 2.5 1
v -2.4 2.5 0.9
v -2.4 3.4 1
v -2.4 3.4 0.9
v -2.4 4.5 1
v -2.4 4.5 0.9
v -2.4 5.4 1
v -2.4 5.4 0.9
v -2.4 6.5 1
v -2.4 6.5 0.9
v -1.4 1.4 1
v -1.4 1.4 0.9
v -1.4 2.5 1
v -1.4 2.5 0.9
v -1.4 3.4 1
v -1.4 3.4 0.9
v -1.4 4.5 1
v -1.4 4.5 0.9
v -1.4 5.4 1
v -1.4 5.4 0.9
v -1.4 6.5 1
v -1.4 6.5 0.9
v 2.38419e-007 4 1
v 2.38419e-007 4 -2
v 2.38419e-007 7 1
v 2.38419e-007 7 -2
v 0.3 0.3 2
v 0.3 0.3 1.9
v 0.3 0.6 2
v 0.3 0.6 1.9
v 0.3 1.3 2
v 0.3 1.3 1.9
v 0.3 1.6 2
v 0.3 1.6 1.9
v 0.3 2.3 2
v 0.3 2.3 1.9
v 0.3 2.6 2
v 0.3 2.6 1.9
v 0.3 3.3 2
v 0.3 3.3 1.9
v 0.3 3.6 2
v 0.3 3.6 1.9
v 0.3 3.7 1.7
v 0.3 3.7 -1.7
v 0.3 4 1.7
v 0.3 4 -1.7
v 3 0 2
v 3 0 -2
v 3 4 2
v 3 4 -2
v 2.38419e-007 0 2
v 2.38419e-007 4 2
v 0.3 0.3 2
v 0.3 0.6 2
v 0.3 1.3 2
v 0.3 1.6 2
v 0.3 2.3 2
v 0.3 2.6 2
v 0.3 3.3 2
v 0.3 3.6 2
v 2.7 0.3 2
v 2.7 0.6 2
v 2.7 1.3 2
v 2.7 1.6 2
v 2.7 2.3 2
v 2.7 2.6 2
v 2.7 3.3 2
v 2.7 3.6 2
v 3 0 2
v 3 4 2
v 0.3 0.3 1.9
v 0.3 0.6 1.9
v 0.3 1.3 1.9
v 0.3 1.6 1.9
v 0.3 2.3 1.9
v 0.3 2.6 1.9
v 0.3 3.3 1.9
v 0.3 3.6 1.9
v 2.7 0.3 1.9
v 2.7 0.6 1.9
v 2.7 1.3 1.9
v 2.7 1.6 1.9
v 2.7 2.3 1.9
v 2.7 2.6 1.9
v 2.7 3.3 1.9
v 2.7 3.6 1.9
v -3 0 1
v -3 7 1
v -2.4 1.4 1
v -2.4 2.5 1
v -2.4 3.4 1
v -2.4 4.5 1
v -2.4 5.4 1
v -2.4 6.5 1
v -1.6 1.4 1
v -1.6 2.5 1
v -1.6 3.4 1
v -1.6 4.5 1
v -1.6 5.4 1
v -1.6 6.5 1
v -1.4 1.4 1
v -1.4 2.5 1
v -1.4 3.4 1
v -1.4 4.5 1
v -1.4 5.4 1
v -1.4 6.5 1
v -0.6 1.4 1
v -0.6 2.5 1
v -0.6 3.4 1
v -0.6 4.5 1
v -0.6 5.4 1
v -0.6 6.5 1
v 2.38419e-007 0 1
v 2.38419e-007 4 1
v 2.38419e-007 7 1
v -2.4 1.4 0.9
v -2.4 2.5 0.9
v -2.4 3.4 0.9
v -2.4 4.5 0.9
v -2.4 5.4 0.9
v -2.4 6.5 0.9
v -1.6 1.4 0.9
v -1.6 2.5 0.9
v -1.6 3.4 0.9
v -1.6 4.5 0.9
v -1.6 5.4 0.9
v -1.6 6.5 0.9
v -1.4 1.4 0.9
v -1.4 2.5 0.9
v -1.4 3.4 0.9
v -1.4 4.5 0.9
v -1.4 5.4 0.9
v -1.4 6.5 0.9
v -0.6 1.4 0.9
v -0.6 2.5 0.9
v -0.6 3.4 0.9
v -0.6 4.5 0.9
v -0.6 5.4 0.9
v -0.6 6.5 0.9
v -3 1.4 -0.4
v -3 2.5 -0.4
v -3 3.4 -0.4
v -3 4.5 -0.4
v -3 5.4 -0.4
v -3 6.5 -0.4
v -2.9 1.4 -0.4
v -2.9 2.5 -0.4
v -2.9 3.4 -0.4
v -2.9 4.5 -0.4
v -2.9 5.4 -0.4
v -2.9 6.5 -0.4
v -3 1.4 -1.4
v -3 2.5 -1.4
v -3 3.4 -1.4
v -3 4.5 -1.4
v -3 5.4 -1.4
v -3 6.5 -1.4
v -2.9 1.4 -1.4
v -2.9 2.5 -1.4
v -2.9 3.4 -1.4
v -2.9 4.5 -1.4
v -2.9 5.4 -1.4
v -2.9 6.5 -1.4
v -2.7 6.7 -1.7
v -2.7 7 -1.7
v -0.3 6.7 -1.7
v -0.3 7 -1.7
v 0.3 3.7 -1.7
v 0.3 4 -1.7
v 2.7 3.7 -1.7
v 2.7 4 -1.7
v 0.3 3.7 1.7
v 0.3 4 1.7
v 2.7 3.7 1.7
v 2.7 4 1.7
v -2.7 6.7 0.7
v -2.7 7 0.7
v -0.3 6.7 0.7
v -0.3 7 0.7
v -3 1.4 0.4
v -3 2.5 0.4
v -3 3.4 0.4
v -3 4.5 0.4
v -3 5.4 0.4
v -3 6.5 0.4
v -2.9 1.4 0.4
v -2.9 2.5 0.4
v -2.9 3.4 0.4
v -2.9 4.5 0.4
v -2.9 5.4 0.4
v -2.9 6.5 0.4
v -3 1.4 -0.6
v -3 2.5 -0.6
v -3 3.4 -0.6
v -3 4.5 -0.6
v -3 5.4 -0.6
v -3 6.5 -0.6
v -2.9 1.4 -0.6
v -2.9 2.5 -0.6
v -2.9 3.4 -0.6
v -2.9 4.5 -0.6
v -2.9 5.4 -0.6
v -2.9 6.5 -0.6
v -3 0 -2
v -3 7 -2
v 2.38419e-007 4 -2
v 2.38419e-007 7 -2
v 3 0 -2
v 3 4 -2
v 2.38419e-007 0 2
v 3 0 2
v -3 0 1
v 2.38419e-007 0 1
v -3 0 -2
v 3 0 -2
v 0.3 0.6 2
v 2.7 0.6 2
v 0.3 0.6 1.9
v 2.7 0.6 1.9
v 0.3 1.6 2
v 2.7 1.6 2
v 0.3 1.6 1.9
v 2.7 1.6 1.9
v -2.4 2.5 1
v -1.6 2.5 1
v -1.4 2.5 1
v -0.6 2.5 1
v -2.4 2.5 0.9
v -1.6 2.5 0.9
v -1.4 2.5 0.9
v -0.6 2.5 0.9
v -3 2.5 0.4
v -2.9 2.5 0.4
v -3 2.5 -0.4
v -2.9 2.5 -0.4
v -3 2.5 -0.6
v -2.9 2.5 -0.6
v -3 2.5 -1.4
v -2.9 2.5 -1.4
v 0.3 2.6 2
v 2.7 2.6 2
v 0.3 2.6 1.9
v 2.7 2.6 1.9
v 0.3 3.6 2
v 2.7 3.6 2
v 0.3 3.6 1.9
v 2.7 3.6 1.9
v -2.4 4.5 1
v -1.6 4.5 1
v -1.4 4.5 1
v -0.6 4.5 1
v -2.4 4.5 0.9
v -1.6 4.5 0.9
v -1.4 4.5 0.9
v -0.6 4.5 0.9
v -3 4.5 0.4
v -2.9 4.5 0.4
v -3 4.5 -0.4
v -2.9 4.5 -0.4
v -3 4.5 -0.6
v -2.9 4.5 -0.6
v -3 4.5 -1.4
v -2.9 4.5 -1.4
v -2.4 6.5 1
v -1.6 6.5 1
v -1.4 6.5 1
v -0.6 6.5 1
v -2.4 6.5 0.9
v -1.6 6.5 0.9
v -1.4 6.5 0.9
v -0.6 6.5 0.9
v -3 6.5 0.4
v -2.9 6.5 0.4
v -3 6.5 -0.4
v -2.9 6.5 -0.4
v -3 6.5 -0.6
v -2.9 6.5 -0.6
v -3 6.5 -1.4
v -2.9 6.5 -1.4
v 0.3 0.3 2
v 2.7 0.3 2
v 0.3 0.3 1.9
v 2.7 0.3 1.9
v 0.3 1.3 2
v 2.7 1.3 2
v 0.3 1.3 1.9
v 2.7 1.3 1.9
v -2.4 1.4 1
v -1.6 1.4 1
v -1.4 1.4 1
v -0.6 1.4 1
v -2.4 1.4 0.9
v -1.6 1.4 0.9
v -1.4 1.4 0.9
v -0.6 1.4 0.9
v -3 1.4 0.4
v -2.9 1.4 0.4
v -3 1.4 -0.4
v -2.9 1.4 -0.4
v -3 1.4 -0.6
v -2.9 1.4 -0.6
v -3 1.4 -1.4
v -2.9 1.4 -1.4
v 0.3 2.3 2
v 2.7 2.3 2
v 0.3 2.3 1.9
v 2.7 2.3 1.9
v 0.3 3.3 2
v 2.7 3.3 2
v 0.3 3.3 1.9
v 2.7 3.3 1.9
v -2.4 3.4 1
v -1.6 3.4 1
v -1.4 3.4 1
v -0.6 3.4 1
v -2.4 3.4 0.9
v -1.6 3.4 0.9
v -1.4 3.4 0.9
v -0.6 3.4 0.9
v -3 3.4 0.4
v -2.9 3.4 0.4
v -3 3.4 -0.4
v -2.9 3.4 -0.4
v -3 3.4 -0.6
v -2.9 3.4 -0.6
v -3 3.4 -1.4
v -2.9 3.4 -1.4
v 0.3 3.7 1.7
v 2.7 3.7 1.7
v 0.3 3.7 -1.7
v 2.7 3.7 -1.7
v 2.38419e-007 4 2
v 3 4 2
v 0.3 4 1.7
v 2.7 4 1.7
v 2.38419e-007 4 1
v 0.3 4 -1.7
v 2.7 4 -1.7
v 2.38419e-007 4 -2
v 3 4 -2
v -2.4 5.4 1
v -1.6 5.4 1
v -1.4 5.4 1
v -0.6 5.4 1
v -2.4 5.4 0.9
v -1.6 5.4 0.9
v -1.4 5.4 0.9
v -0.6 5.4 0.9
v -3 5.4 0.4
v -2.9 5.4 0.4
v -3 5.4 -0.4
v -2.9 5.4 -0.4
v -3 5.4 -0.6
v -2.9 5.4 -0.6
v -3 5.4 -1.4
v -2.9 5.4 -1.4
v -2.7 6.7 0.7
v -0.3 6.7 0.7
v -2.7 6.7 -1.7
v -0.3 6.7 -1.7
v -3 7 1
v 2.38419e-007 7 1
v -2.7 7 0.7
v -0.3 7 0.7
v -2.7 7 -1.7
v -0.3 7 -1.7
v -3 7 -2
v 2.38419e-007 7 -2

# faces
f 3/3/1 2/3/1 1/3/1
f 4/3/1 2/3/1 3/3/1
f 5/3/1 2/3/1 4/3/1
f 6/3/1 2/3/1 5/3/1
f 7/3/1 3/3/1 1/3/1
f 8/3/1 5/3/1 4/3/1
f 9/3/1 5/3/1 8/3/1
f 10/3/1 2/3/1 6/3/1
f 11/3/1 9/3/1 8/3/1
f 11/3/1 10/3/1 9/3/1
f 11/3/1 7/3/1 1/3/1
f 11/3/1 8/3/1 7/3/1
f 12/3/1 10/3/1 11/3/1
f 13/3/1 10/3/1 12/3/1
f 14/3/1 2/3/1 10/3/1
f 14/3/1 10/3/1 13/3/1
f 15/3/1 11/3/1 1/3/1
f 16/3/1 13/3/1 12/3/1
f 17/3/1 13/3/1 16/3/1
f 18/3/1 2/3/1 14/3/1
f 19/3/1 15/3/1 1/3/1
f 19/3/1 18/3/1 17/3/1
f 19/3/1 17/3/1 16/3/1
f 19/3/1 16/3/1 15/3/1
f 20/3/1 18/3/1 19/3/1
f 21/3/1 18/3/1 20/3/1
f 22/3/1 2/3/1 18/3/1
f 22/3/1 18/3/1 21/3/1
f 23/3/1 19/3/1 1/3/1
f 24/3/1 21/3/1 20/3/1
f 25/3/1 21/3/1 24/3/1
f 26/3/1 2/3/1 22/3/1
f 27/3/1 23/3/1 1/3/1
f 27/3/1 26/3/1 25/3/1
f 27/3/1 25/3/1 24/3/1
f 27/3/1 24/3/1 23/3/1
f 28/3/1 2/3/1 26/3/1
f 28/3/1 26/3/1 27/3/1
f 33/4/1 30/4/1 29/4/1
f 34/4/1 30/4/1 33/4/1
f 35/4/1 32/4/1 31/4/1
f 36/4/1 32/4/1 35/4/1
f 41/4/1 38/4/1 37/4/1
f 42/4/1 38/4/1 41/4/1
f 43/4/1 40/4/1 39/4/1
f 44/4/1 40/4/1 43/4/1
f 49/4/1 46/4/1 45/4/1
f 50/4/1 46/4/1 49/4/1
f 51/4/1 48/4/1 47/4/1
f 52/4/1 48/4/1 51/4/1
f 55/3/1 54/3/1 53/3/1
f 56/3/1 54/3/1 55/3/1
f 59/3/1 58/3/1 57/3/1
f 60/3/1 58/3/1 59/3/1
f 63/3/1 62/3/1 61/3/1
f 64/3/1 62/3/1 63/3/1
f 67/3/1 66/3/1 65/3/1
f 68/3/1 66/3/1 67/3/1
f 71/3/1 70/3/1 69/3/1
f 72/3/1 70/3/1 71/3/1
f 75/3/1 74/3/1 73/3/1
f 76/3/1 74/3/1 75/3/1
f 79/3/1 78/3/1 77/3/1
f 80/3/1 78/3/1 79/3/1
f 83/3/1 82/3/1 81/3/1
f 84/3/1 82/3/1 83/3/1
f 87/3/1 86/3/1 85/3/1
f 88/3/1 86/3/1 87/3/1
f 91/3/1 90/3/1 89/3/1
f 92/3/1 90/3/1 91/3/1
f 95/3/1 94/3/1 93/3/1
f 96/3/1 94/3/1 95/3/1
f 99/3/1 98/3/1 97/3/1
f 100/3/1 98/3/1 99/3/1
f 103/3/1 102/3/1 101/3/1
f 104/3/1 102/3/1 103/3/1
f 105/3/2 106/3/2 107/3/2
f 107/3/2 106/3/2 108/3/2
f 109/3/2 110/3/2 111/3/2
f 111/3/2 110/3/2 112/3/2
f 113/3/2 114/3/2 115/3/2
f 115/3/2 114/3/2 116/3/2
f 117/3/2 118/3/2 119/3/2
f 119/3/2 118/3/2 120/3/2
f 121/3/2 122/3/2 123/3/2
f 123/3/2 122/3/2 124/3/2
f 125/3/2 126/3/2 127/3/2
f 127/3/2 126/3/2 128/3/2
f 129/3/2 130/3/2 131/3/2
f 131/3/2 130/3/2 132/3/2
f 133/3/2 134/3/2 135/3/2
f 135/3/2 134/3/2 136/3/2
f 137/3/2 138/3/2 139/3/2
f 139/3/2 138/3/2 140/3/2
f 141/3/2 142/3/2 143/3/2
f 143/3/2 142/3/2 144/3/2
f 145/3/2 146/3/2 147/3/2
f 147/3/2 146/3/2 148/3/2
f 149/3/2 150/3/2 151/3/2
f 151/3/2 150/3/2 152/3/2
f 153/3/2 154/3/2 155/3/2
f 155/3/2 154/3/2 156/3/2
f 157/3/2 158/3/2 159/3/2
f 159/3/2 158/3/2 160/3/2
f 163/3/3 162/3/3 161/3/3
f 164/3/3 162/3/3 163/3/3
f 165/3/3 162/3/3 164/3/3
f 166/3/3 162/3/3 165/3/3
f 167/3/3 162/3/3 166/3/3
f 168/3/3 162/3/3 167/3/3
f 169/3/3 162/3/3 168/3/3
f 170/3/3 162/3/3 169/3/3
f 171/3/3 163/3/3 161/3/3
f 172/3/3 165/3/3 164/3/3
f 173/3/3 165/3/3 172/3/3
f 174/3/3 167/3/3 166/3/3
f 175/3/3 167/3/3 174/3/3
f 176/3/3 169/3/3 168/3/3
f 177/3/3 169/3/3 176/3/3
f 178/3/3 162/3/3 170/3/3
f 179/3/3 177/3/3 176/3/3
f 179/3/3 178/3/3 177/3/3
f 179/3/3 175/3/3 174/3/3
f 179/3/3 171/3/3 161/3/3
f 179/3/3 176/3/3 175/3/3
f 179/3/3 173/3/3 172/3/3
f 179/3/3 174/3/3 173/3/3
f 179/3/3 172/3/3 171/3/3
f 180/3/3 162/3/3 178/3/3
f 180/3/3 178/3/3 179/3/3
f 189/4/3 182/4/3 181/4/3
f 190/4/3 182/4/3 189/4/3
f 191/4/3 184/4/3 183/4/3
f 192/4/3 184/4/3 191/4/3
f 193/4/3 186/4/3 185/4/3
f 194/4/3 186/4/3 193/4/3
f 195/4/3 188/4/3 187/4/3
f 196/4/3 188/4/3 195/4/3
f 199/3/3 198/3/3 197/3/3
f 200/3/3 198/3/3 199/3/3
f 201/3/3 198/3/3 200/3/3
f 202/3/3 198/3/3 201/3/3
f 203/3/3 198/3/3 202/3/3
f 204/3/3 198/3/3 203/3/3
f 205/3/3 199/3/3 197/3/3
f 206/3/3 201/3/3 200/3/3
f 207/3/3 201/3/3 206/3/3
f 208/3/3 203/3/3 202/3/3
f 209/3/3 203/3/3 208/3/3
f 210/3/3 198/3/3 204/3/3
f 211/3/3 209/3/3 208/3/3
f 211/3/3 210/3/3 209/3/3
f 211/3/3 207/3/3 206/3/3
f 211/3/3 205/3/3 197/3/3
f 211/3/3 208/3/3 207/3/3
f 211/3/3 206/3/3 205/3/3
f 212/3/3 210/3/3 211/3/3
f 213/3/3 210/3/3 212/3/3
f 214/3/3 210/3/3 213/3/3
f 215/3/3 210/3/3 214/3/3
f 216/3/3 198/3/3 210/3/3
f 216/3/3 210/3/3 215/3/3
f 217/3/3 211/3/3 197/3/3
f 218/3/3 213/3/3 212/3/3
f 219/3/3 213/3/3 218/3/3
f 220/3/3 215/3/3 214/3/3
f 221/3/3 215/3/3 220/3/3
f 222/3/3 198/3/3 216/3/3
f 223/3/3 219/3/3 218/3/3
f 223/3/3 222/3/3 221/3/3
f 223/3/3 221/3/3 220/3/3
f 223/3/3 217/3/3 197/3/3
f 223/3/3 220/3/3 219/3/3
f 223/3/3 218/3/3 217/3/3
f 224/3/3 222/3/3 223/3/3
f 225/3/3 198/3/3 222/3/3
f 225/3/3 222/3/3 224/3/3
f 232/4/3 227/4/3 226/4/3
f 233/4/3 227/4/3 232/4/3
f 234/4/3 229/4/3 228/4/3
f 235/4/3 229/4/3 234/4/3
f 236/4/3 231/4/3 230/4/3
f 237/4/3 231/4/3 236/4/3
f 244/4/3 239/4/3 238/4/3
f 245/4/3 239/4/3 244/4/3
f 246/4/3 241/4/3 240/4/3
f 247/4/3 241/4/3 246/4/3
f 248/4/3 243/4/3 242/4/3
f 249/4/3 243/4/3 248/4/3
f 256/3/3 251/3/3 250/3/3
f 257/3/3 251/3/3 256/3/3
f 258/3/3 253/3/3 252/3/3
f 259/3/3 253/3/3 258/3/3
f 260/3/3 255/3/3 254/3/3
f 261/3/3 255/3/3 260/3/3
f 268/3/3 263/3/3 262/3/3
f 269/3/3 263/3/3 268/3/3
f 270/3/3 265/3/3 264/3/3
f 271/3/3 265/3/3 270/3/3
f 272/3/3 267/3/3 266/3/3
f 273/3/3 267/3/3 272/3/3
f 276/3/3 275/3/3 274/3/3
f 277/3/3 275/3/3 276/3/3
f 280/3/3 279/3/3 278/3/3
f 281/3/3 279/3/3 280/3/3
f 282/3/4 283/3/4 284/3/4
f 284/3/4 283/3/4 285/3/4
f 286/3/4 287/3/4 288/3/4
f 288/3/4 287/3/4 289/3/4
f 290/3/4 291/3/4 296/3/4
f 296/3/4 291/3/4 297/3/4
f 292/3/4 293/3/4 298/3/4
f 298/3/4 293/3/4 299/3/4
f 294/3/4 295/3/4 300/3/4
f 300/3/4 295/3/4 301/3/4
f 302/3/4 303/3/4 308/3/4
f 308/3/4 303/3/4 309/3/4
f 304/3/4 305/3/4 310/3/4
f 310/3/4 305/3/4 311/3/4
f 306/3/4 307/3/4 312/3/4
f 312/3/4 307/3/4 313/3/4
f 314/3/4 315/3/4 316/3/4
f 316/3/4 315/3/4 317/3/4
f 314/3/4 316/3/4 318/3/4
f 318/3/4 316/3/4 319/3/4
f 323/3/5 321/3/5 320/3/5
f 324/3/5 323/3/5 322/3/5
f 325/3/5 321/3/5 323/3/5
f 325/3/5 323/3/5 324/3/5
f 328/3/5 327/3/5 326/3/5
f 329/3/5 327/3/5 328/3/5
f 332/3/5 331/3/5 330/3/5
f 333/3/5 331/3/5 332/3/5
f 338/3/5 335/3/5 334/3/5
f 339/3/5 335/3/5 338/3/5
f 340/3/5 337/3/5 336/3/5
f 341/3/5 337/3/5 340/3/5
f 344/3/5 343/3/5 342/3/5
f 345/3/5 343/3/5 344/3/5
f 348/3/5 347/3/5 346/3/5
f 349/3/5 347/3/5 348/3/5
f 352/3/5 351/3/5 350/3/5
f 353/3/5 351/3/5 352/3/5
f 356/3/5 355/3/5 354/3/5
f 357/3/5 355/3/5 356/3/5
f 362/3/5 359/3/5 358/3/5
f 363/3/5 359/3/5 362/3/5
f 364/3/5 361/3/5 360/3/5
f 365/3/5 361/3/5 364/3/5
f 368/3/5 367/3/5 366/3/5
f 369/3/5 367/3/5 368/3/5
f 372/3/5 371/3/5 370/3/5
f 373/3/5 371/3/5 372/3/5
f 378/3/5 375/3/5 374/3/5
f 379/3/5 375/3/5 378/3/5
f 380/3/5 377/3/5 376/3/5
f 381/3/5 377/3/5 380/3/5
f 384/3/5 383/3/5 382/3/5
f 385/3/5 383/3/5 384/3/5
f 388/3/5 387/3/5 386/3/5
f 389/3/5 387/3/5 388/3/5
f 390/3/6 391/3/6 392/3/6
f 392/3/6 391/3/6 393/3/6
f 394/3/6 395/3/6 396/3/6
f 396/3/6 395/3/6 397/3/6
f 398/3/6 399/3/6 402/3/6
f 402/3/6 399/3/6 403/3/6
f 400/3/6 401/3/6 404/3/6
f 404/3/6 401/3/6 405/3/6
f 406/3/6 407/3/6 408/3/6
f 408/3/6 407/3/6 409/3/6
f 410/3/6 411/3/6 412/3/6
f 412/3/6 411/3/6 413/3/6
f 414/3/6 415/3/6 416/3/6
f 416/3/6 415/3/6 417/3/6
f 418/3/6 419/3/6 420/3/6
f 420/3/6 419/3/6 421/3/6
f 422/3/6 423/3/6 426/3/6
f 426/3/6 423/3/6 427/3/6
f 424/3/6 425/3/6 428/3/6
f 428/3/6 425/3/6 429/3/6
f 430/3/6 431/3/6 432/3/6
f 432/3/6 431/3/6 433/3/6
f 434/3/6 435/3/6 436/3/6
f 436/3/6 435/3/6 437/3/6
f 438/2/6 439/2/6 440/2/6
f 440/2/6 439/2/6 441/2/6
f 442/3/6 443/3/6 444/3/6
f 444/3/6 443/3/6 445/3/6
f 442/3/6 444/3/6 446/3/6
f 446/3/6 444/3/6 447/3/6
f 445/3/6 443/3/6 448/3/6
f 446/3/6 447/3/6 449/3/6
f 447/3/6 448/3/6 449/3/6
f 448/3/6 443/3/6 450/3/6
f 449/3/6 448/3/6 450/3/6
f 451/3/6 452/3/6 455/3/6
f 455/3/6 452/3/6 456/3/6
f 453/3/6 454/3/6 457/3/6
f 457/3/6 454/3/6 458/3/6
f 459/3/6 460/3/6 461/3/6
f 461/3/6 460/3/6 462/3/6
f 463/3/6 464/3/6 465/3/6
f 465/3/6 464/3/6 466/3/6
f 467/2/6 468/2/6 469/2/6
f 469/2/6 468/2/6 470/2/6
f 471/3/6 472/3/6 473/3/6
f 473/3/6 472/3/6 474/3/6
f 471/3/6 473/3/6 475/3/6
f 474/3/6 472/3/6 476/3/6
f 471/3/6 475/3/6 477/3/6
f 475/3/6 476/3/6 477/3/6
f 476/3/6 472/3/6 478/3/6
f 477/3/6 476/3/6 478/3/6
