# MagicaVoxel @ Ephtracy

# group
o 

# material
mtllib Tree03.mtl
usemtl palette

# normals
vn -1 0 0
vn 1 0 0
vn 0 0 1
vn 0 0 -1
vn 0 -1 0
vn 0 1 0

# texcoords
vt 0.0683594 0.5
vt 0.142578 0.5
vt 0.146484 0.5

# verts
v -0.4 0.5 0.4
v -0.4 0.5 -0.5
v -0.4 0.7 0.4
v -0.4 0.7 -0.5
v -0.4 0.9 0.4
v -0.4 0.9 -0.5
v -0.3 0.9 0.3
v -0.3 0.9 -0.4
v -0.3 1.1 0.3
v -0.3 1.1 -0.4
v -0.3 1.3 0.3
v -0.3 1.3 -0.4
v -0.2 1.3 0.2
v -0.2 1.3 -0.3
v -0.2 1.5 0.2
v -0.2 1.5 -0.3
v -0.2 1.7 0.2
v -0.2 1.7 -0.3
v -0.1 0 0.1
v -0.1 0 -0.2
v -0.1 0.5 0.1
v -0.1 0.5 -0.2
v -0.1 1.7 0.1
v -0.1 1.7 -0.2
v -0.1 2 0.1
v -0.1 2 -0.2
v 0.2 0 0.1
v 0.2 0 -0.2
v 0.2 0.5 0.1
v 0.2 0.5 -0.2
v 0.2 1.7 0.1
v 0.2 1.7 -0.2
v 0.2 2 0.1
v 0.2 2 -0.2
v 0.3 1.3 0.2
v 0.3 1.3 -0.3
v 0.3 1.5 0.2
v 0.3 1.5 -0.3
v 0.3 1.7 0.2
v 0.3 1.7 -0.3
v 0.4 0.9 0.3
v 0.4 0.9 -0.4
v 0.4 1.1 0.3
v 0.4 1.1 -0.4
v 0.4 1.3 0.3
v 0.4 1.3 -0.4
v 0.5 0.5 0.4
v 0.5 0.5 -0.5
v 0.5 0.7 0.4
v 0.5 0.7 -0.5
v 0.5 0.9 0.4
v 0.5 0.9 -0.5
v -0.4 0.5 0.4
v -0.4 0.7 0.4
v -0.4 0.9 0.4
v 0.5 0.5 0.4
v 0.5 0.7 0.4
v 0.5 0.9 0.4
v -0.3 0.9 0.3
v -0.3 1.1 0.3
v -0.3 1.3 0.3
v 0.4 0.9 0.3
v 0.4 1.1 0.3
v 0.4 1.3 0.3
v -0.2 1.3 0.2
v -0.2 1.5 0.2
v -0.2 1.7 0.2
v 0.3 1.3 0.2
v 0.3 1.5 0.2
v 0.3 1.7 0.2
v -0.1 0 0.1
v -0.1 0.5 0.1
v -0.1 1.7 0.1
v -0.1 2 0.1
v 0.2 0 0.1
v 0.2 0.5 0.1
v 0.2 1.7 0.1
v 0.2 2 0.1
v -0.1 0 -0.2
v -0.1 0.5 -0.2
v -0.1 1.7 -0.2
v -0.1 2 -0.2
v 0.2 0 -0.2
v 0.2 0.5 -0.2
v 0.2 1.7 -0.2
v 0.2 2 -0.2
v -0.2 1.3 -0.3
v -0.2 1.5 -0.3
v -0.2 1.7 -0.3
v 0.3 1.3 -0.3
v 0.3 1.5 -0.3
v 0.3 1.7 -0.3
v -0.3 0.9 -0.4
v -0.3 1.1 -0.4
v -0.3 1.3 -0.4
v 0.4 0.9 -0.4
v 0.4 1.1 -0.4
v 0.4 1.3 -0.4
v -0.4 0.5 -0.5
v -0.4 0.7 -0.5
v -0.4 0.9 -0.5
v 0.5 0.5 -0.5
v 0.5 0.7 -0.5
v 0.5 0.9 -0.5
v -0.1 0 0.1
v 0.2 0 0.1
v -0.1 0 -0.2
v 0.2 0 -0.2
v -0.4 0.5 0.4
v 0.5 0.5 0.4
v -0.3 0.5 0.3
v 0.4 0.5 0.3
v -0.1 0.5 0.1
v 0.2 0.5 0.1
v -0.1 0.5 -0.2
v 0.2 0.5 -0.2
v -0.3 0.5 -0.4
v 0.4 0.5 -0.4
v -0.4 0.5 -0.5
v 0.5 0.5 -0.5
v -0.4 0.9 0.4
v 0.5 0.9 0.4
v -0.3 0.9 0.3
v 0.4 0.9 0.3
v -0.3 0.9 -0.4
v 0.4 0.9 -0.4
v -0.4 0.9 -0.5
v 0.5 0.9 -0.5
v -0.3 1.3 0.3
v 0.4 1.3 0.3
v -0.2 1.3 0.2
v 0.3 1.3 0.2
v -0.2 1.3 -0.3
v 0.3 1.3 -0.3
v -0.3 1.3 -0.4
v 0.4 1.3 -0.4
v -0.2 1.7 0.2
v 0.3 1.7 0.2
v -0.1 1.7 0.1
v 0.2 1.7 0.1
v -0.1 1.7 -0.2
v 0.2 1.7 -0.2
v -0.2 1.7 -0.3
v 0.3 1.7 -0.3
v -0.1 2 0.1
v 0.2 2 0.1
v -0.1 2 -0.2
v 0.2 2 -0.2

# faces
f 3/3/1 2/3/1 1/3/1
f 4/3/1 2/3/1 3/3/1
f 5/2/1 4/2/1 3/2/1
f 6/2/1 4/2/1 5/2/1
f 9/3/1 8/3/1 7/3/1
f 10/3/1 8/3/1 9/3/1
f 11/2/1 10/2/1 9/2/1
f 12/2/1 10/2/1 11/2/1
f 15/3/1 14/3/1 13/3/1
f 16/3/1 14/3/1 15/3/1
f 17/2/1 16/2/1 15/2/1
f 18/2/1 16/2/1 17/2/1
f 21/1/1 20/1/1 19/1/1
f 22/1/1 20/1/1 21/1/1
f 25/2/1 24/2/1 23/2/1
f 26/2/1 24/2/1 25/2/1
f 27/1/2 28/1/2 29/1/2
f 29/1/2 28/1/2 30/1/2
f 31/2/2 32/2/2 33/2/2
f 33/2/2 32/2/2 34/2/2
f 35/3/2 36/3/2 37/3/2
f 37/3/2 36/3/2 38/3/2
f 37/2/2 38/2/2 39/2/2
f 39/2/2 38/2/2 40/2/2
f 41/3/2 42/3/2 43/3/2
f 43/3/2 42/3/2 44/3/2
f 43/2/2 44/2/2 45/2/2
f 45/2/2 44/2/2 46/2/2
f 47/3/2 48/3/2 49/3/2
f 49/3/2 48/3/2 50/3/2
f 49/2/2 50/2/2 51/2/2
f 51/2/2 50/2/2 52/2/2
f 56/3/3 54/3/3 53/3/3
f 57/2/3 55/2/3 54/2/3
f 57/3/3 54/3/3 56/3/3
f 58/2/3 55/2/3 57/2/3
f 62/3/3 60/3/3 59/3/3
f 63/2/3 61/2/3 60/2/3
f 63/3/3 60/3/3 62/3/3
f 64/2/3 61/2/3 63/2/3
f 68/3/3 66/3/3 65/3/3
f 69/2/3 67/2/3 66/2/3
f 69/3/3 66/3/3 68/3/3
f 70/2/3 67/2/3 69/2/3
f 75/1/3 72/1/3 71/1/3
f 76/1/3 72/1/3 75/1/3
f 77/2/3 74/2/3 73/2/3
f 78/2/3 74/2/3 77/2/3
f 79/1/4 80/1/4 83/1/4
f 83/1/4 80/1/4 84/1/4
f 81/2/4 82/2/4 85/2/4
f 85/2/4 82/2/4 86/2/4
f 87/3/4 88/3/4 90/3/4
f 88/2/4 89/2/4 91/2/4
f 90/3/4 88/3/4 91/3/4
f 91/2/4 89/2/4 92/2/4
f 93/3/4 94/3/4 96/3/4
f 94/2/4 95/2/4 97/2/4
f 96/3/4 94/3/4 97/3/4
f 97/2/4 95/2/4 98/2/4
f 99/3/4 100/3/4 102/3/4
f 100/2/4 101/2/4 103/2/4
f 102/3/4 100/3/4 103/3/4
f 103/2/4 101/2/4 104/2/4
f 107/1/5 106/1/5 105/1/5
f 108/1/5 106/1/5 107/1/5
f 111/3/5 110/3/5 109/3/5
f 112/3/5 110/3/5 111/3/5
f 113/2/5 112/2/5 111/2/5
f 114/2/5 112/2/5 113/2/5
f 115/2/5 113/2/5 111/2/5
f 116/2/5 112/2/5 114/2/5
f 117/3/5 111/3/5 109/3/5
f 117/2/5 116/2/5 115/2/5
f 117/2/5 115/2/5 111/2/5
f 118/2/5 112/2/5 116/2/5
f 118/2/5 116/2/5 117/2/5
f 118/3/5 110/3/5 112/3/5
f 119/3/5 117/3/5 109/3/5
f 119/3/5 118/3/5 117/3/5
f 120/3/5 110/3/5 118/3/5
f 120/3/5 118/3/5 119/3/5
f 121/2/6 122/2/6 123/2/6
f 123/2/6 122/2/6 124/2/6
f 121/2/6 123/2/6 125/2/6
f 124/2/6 122/2/6 126/2/6
f 121/2/6 125/2/6 127/2/6
f 125/2/6 126/2/6 127/2/6
f 126/2/6 122/2/6 128/2/6
f 127/2/6 126/2/6 128/2/6
f 129/2/6 130/2/6 131/2/6
f 131/2/6 130/2/6 132/2/6
f 129/2/6 131/2/6 133/2/6
f 132/2/6 130/2/6 134/2/6
f 129/2/6 133/2/6 135/2/6
f 133/2/6 134/2/6 135/2/6
f 134/2/6 130/2/6 136/2/6
f 135/2/6 134/2/6 136/2/6
f 137/2/6 138/2/6 139/2/6
f 139/2/6 138/2/6 140/2/6
f 137/2/6 139/2/6 141/2/6
f 140/2/6 138/2/6 142/2/6
f 137/2/6 141/2/6 143/2/6
f 141/2/6 142/2/6 143/2/6
f 142/2/6 138/2/6 144/2/6
f 143/2/6 142/2/6 144/2/6
f 145/2/6 146/2/6 147/2/6
f 147/2/6 146/2/6 148/2/6
