# MagicaVoxel @ Ephtracy

# group
o 

# material
mtllib Path4Way.mtl
usemtl palette

# normals
vn -1 0 0
vn 1 0 0
vn 0 0 1
vn 0 0 -1
vn 0 -1 0
vn 0 1 0

# texcoords
vt 0.0761719 0.5
vt 0.0800781 0.5
vt 0.142578 0.5

# verts
v -1.5 0 1.5
v -1.5 0 -1.5
v -1.5 0.2 1.5
v -1.5 0.2 -1.5
v -1.5 0.3 0.5
v -1.5 0.3 -0.5
v -1.5 0.4 1.5
v -1.5 0.4 0.5
v -1.5 0.4 -0.5
v -1.5 0.4 -1.5
v 1.5 0 1.5
v 1.5 0 -1.5
v 1.5 0.2 1.5
v 1.5 0.2 -1.5
v 1.5 0.3 0.5
v 1.5 0.3 -0.5
v 1.5 0.4 1.5
v 1.5 0.4 0.5
v 1.5 0.4 -0.5
v 1.5 0.4 -1.5
v -1.5 0 1.5
v -1.5 0.2 1.5
v -1.5 0.4 1.5
v -0.5 0.3 1.5
v -0.5 0.4 1.5
v 0.5 0.3 1.5
v 0.5 0.4 1.5
v 1.5 0 1.5
v 1.5 0.2 1.5
v 1.5 0.4 1.5
v -1.5 0 -1.5
v -1.5 0.2 -1.5
v -1.5 0.4 -1.5
v -0.5 0.3 -1.5
v -0.5 0.4 -1.5
v 0.5 0.3 -1.5
v 0.5 0.4 -1.5
v 1.5 0 -1.5
v 1.5 0.2 -1.5
v 1.5 0.4 -1.5
v -1.5 0 1.5
v 1.5 0 1.5
v -1.5 0 -1.5
v 1.5 0 -1.5
v -1.5 0.4 1.5
v -0.5 0.4 1.5
v 0.5 0.4 1.5
v 1.5 0.4 1.5
v -0.1 0.4 1.2
v 0 0.4 1.2
v -0.1 0.4 1.1
v 0 0.4 1.1
v 0.1 0.4 0.9
v 0.2 0.4 0.9
v 0.1 0.4 0.8
v 0.2 0.4 0.8
v -0.3 0.4 0.7
v -0.2 0.4 0.7
v -0.3 0.4 0.6
v -0.2 0.4 0.6
v -1.5 0.4 0.5
v -0.5 0.4 0.5
v 0.5 0.4 0.5
v 1.5 0.4 0.5
v -0.8 0.4 0.3
v -0.7 0.4 0.3
v 0.2 0.4 0.3
v 0.3 0.4 0.3
v 0.8 0.4 0.3
v 0.9 0.4 0.3
v -0.8 0.4 0.2
v -0.7 0.4 0.2
v 0.2 0.4 0.2
v 0.3 0.4 0.2
v 0.8 0.4 0.2
v 0.9 0.4 0.2
v -1.1 0.4 0.1
v -1 0.4 0.1
v -0.3 0.4 0.1
v -0.2 0.4 0.1
v -1.1 0.4 0
v -1 0.4 0
v -0.3 0.4 0
v -0.2 0.4 0
v 1.2 0.4 -0.1
v 1.3 0.4 -0.1
v -0.1 0.4 -0.2
v 0 0.4 -0.2
v 0.6 0.4 -0.2
v 0.7 0.4 -0.2
v 1.2 0.4 -0.2
v 1.3 0.4 -0.2
v -0.8 0.4 -0.3
v -0.7 0.4 -0.3
v -0.1 0.4 -0.3
v 0 0.4 -0.3
v 0.6 0.4 -0.3
v 0.7 0.4 -0.3
v -0.8 0.4 -0.4
v -0.7 0.4 -0.4
v -1.5 0.4 -0.5
v -0.5 0.4 -0.5
v 0.5 0.4 -0.5
v 1.5 0.4 -0.5
v 0.2 0.4 -0.6
v 0.3 0.4 -0.6
v 0.2 0.4 -0.7
v 0.3 0.4 -0.7
v -0.3 0.4 -1
v -0.2 0.4 -1
v -0.3 0.4 -1.1
v -0.2 0.4 -1.1
v 0.2 0.4 -1.2
v 0.3 0.4 -1.2
v 0.2 0.4 -1.3
v 0.3 0.4 -1.3
v -1.5 0.4 -1.5
v -0.5 0.4 -1.5
v 0.5 0.4 -1.5
v 1.5 0.4 -1.5

# faces
f 3/1/1 2/1/1 1/1/1
f 4/1/1 2/1/1 3/1/1
f 5/3/1 4/3/1 3/3/1
f 6/3/1 4/3/1 5/3/1
f 7/3/1 5/3/1 3/3/1
f 8/2/1 6/2/1 5/2/1
f 8/3/1 5/3/1 7/3/1
f 9/3/1 4/3/1 6/3/1
f 9/2/1 6/2/1 8/2/1
f 10/3/1 4/3/1 9/3/1
f 11/1/2 12/1/2 13/1/2
f 13/1/2 12/1/2 14/1/2
f 13/3/2 14/3/2 15/3/2
f 15/3/2 14/3/2 16/3/2
f 13/3/2 15/3/2 17/3/2
f 15/2/2 16/2/2 18/2/2
f 17/3/2 15/3/2 18/3/2
f 16/3/2 14/3/2 19/3/2
f 18/2/2 16/2/2 19/2/2
f 19/3/2 14/3/2 20/3/2
f 24/3/3 23/3/3 22/3/3
f 25/3/3 23/3/3 24/3/3
f 26/3/3 24/3/3 22/3/3
f 26/2/3 25/2/3 24/2/3
f 27/2/3 25/2/3 26/2/3
f 28/1/3 22/1/3 21/1/3
f 29/3/3 26/3/3 22/3/3
f 29/1/3 22/1/3 28/1/3
f 29/3/3 27/3/3 26/3/3
f 30/3/3 27/3/3 29/3/3
f 32/3/4 33/3/4 34/3/4
f 34/3/4 33/3/4 35/3/4
f 32/3/4 34/3/4 36/3/4
f 34/2/4 35/2/4 36/2/4
f 36/2/4 35/2/4 37/2/4
f 31/1/4 32/1/4 38/1/4
f 32/3/4 36/3/4 39/3/4
f 38/1/4 32/1/4 39/1/4
f 36/3/4 37/3/4 39/3/4
f 39/3/4 37/3/4 40/3/4
f 43/1/5 42/1/5 41/1/5
f 44/1/5 42/1/5 43/1/5
f 46/2/6 47/2/6 49/2/6
f 49/2/6 47/2/6 50/2/6
f 46/2/6 49/2/6 51/2/6
f 49/1/6 50/1/6 51/1/6
f 50/2/6 47/2/6 52/2/6
f 51/1/6 50/1/6 52/1/6
f 51/2/6 52/2/6 53/2/6
f 52/2/6 47/2/6 53/2/6
f 53/2/6 47/2/6 54/2/6
f 51/2/6 53/2/6 55/2/6
f 53/1/6 54/1/6 55/1/6
f 54/2/6 47/2/6 56/2/6
f 55/1/6 54/1/6 56/1/6
f 46/2/6 51/2/6 57/2/6
f 51/2/6 55/2/6 57/2/6
f 55/2/6 56/2/6 57/2/6
f 57/2/6 56/2/6 58/2/6
f 46/2/6 57/2/6 59/2/6
f 57/1/6 58/1/6 59/1/6
f 58/2/6 56/2/6 60/2/6
f 59/1/6 58/1/6 60/1/6
f 45/3/6 46/3/6 61/3/6
f 46/2/6 59/2/6 62/2/6
f 61/3/6 46/3/6 62/3/6
f 59/2/6 60/2/6 62/2/6
f 60/2/6 56/2/6 63/2/6
f 62/2/6 60/2/6 63/2/6
f 47/3/6 48/3/6 63/3/6
f 56/2/6 47/2/6 63/2/6
f 63/3/6 48/3/6 64/3/6
f 61/2/6 62/2/6 65/2/6
f 62/2/6 63/2/6 65/2/6
f 63/2/6 64/2/6 65/2/6
f 65/2/6 64/2/6 66/2/6
f 66/2/6 64/2/6 67/2/6
f 67/2/6 64/2/6 68/2/6
f 68/2/6 64/2/6 69/2/6
f 69/2/6 64/2/6 70/2/6
f 61/2/6 65/2/6 71/2/6
f 65/1/6 66/1/6 71/1/6
f 66/2/6 67/2/6 72/2/6
f 71/1/6 66/1/6 72/1/6
f 67/1/6 68/1/6 73/1/6
f 72/2/6 67/2/6 73/2/6
f 68/2/6 69/2/6 74/2/6
f 73/1/6 68/1/6 74/1/6
f 69/1/6 70/1/6 75/1/6
f 74/2/6 69/2/6 75/2/6
f 70/2/6 64/2/6 76/2/6
f 75/1/6 70/1/6 76/1/6
f 74/2/6 75/2/6 77/2/6
f 73/2/6 74/2/6 77/2/6
f 75/2/6 76/2/6 77/2/6
f 72/2/6 73/2/6 77/2/6
f 71/2/6 72/2/6 77/2/6
f 61/2/6 71/2/6 77/2/6
f 77/2/6 76/2/6 78/2/6
f 78/2/6 76/2/6 79/2/6
f 79/2/6 76/2/6 80/2/6
f 61/2/6 77/2/6 81/2/6
f 77/1/6 78/1/6 81/1/6
f 78/2/6 79/2/6 82/2/6
f 81/1/6 78/1/6 82/1/6
f 79/1/6 80/1/6 83/1/6
f 82/2/6 79/2/6 83/2/6
f 80/2/6 76/2/6 84/2/6
f 83/1/6 80/1/6 84/1/6
f 76/2/6 64/2/6 85/2/6
f 84/2/6 76/2/6 85/2/6
f 83/2/6 84/2/6 85/2/6
f 82/2/6 83/2/6 85/2/6
f 81/2/6 82/2/6 85/2/6
f 85/2/6 64/2/6 86/2/6
f 81/2/6 85/2/6 87/2/6
f 87/2/6 85/2/6 88/2/6
f 88/2/6 85/2/6 89/2/6
f 89/2/6 85/2/6 90/2/6
f 85/1/6 86/1/6 91/1/6
f 90/2/6 85/2/6 91/2/6
f 86/2/6 64/2/6 92/2/6
f 91/1/6 86/1/6 92/1/6
f 81/2/6 87/2/6 93/2/6
f 93/2/6 87/2/6 94/2/6
f 87/1/6 88/1/6 95/1/6
f 94/2/6 87/2/6 95/2/6
f 88/2/6 89/2/6 96/2/6
f 95/1/6 88/1/6 96/1/6
f 89/1/6 90/1/6 97/1/6
f 96/2/6 89/2/6 97/2/6
f 90/2/6 91/2/6 98/2/6
f 97/1/6 90/1/6 98/1/6
f 91/2/6 92/2/6 98/2/6
f 93/1/6 94/1/6 99/1/6
f 81/2/6 93/2/6 99/2/6
f 96/2/6 97/2/6 100/2/6
f 99/1/6 94/1/6 100/1/6
f 95/2/6 96/2/6 100/2/6
f 97/2/6 98/2/6 100/2/6
f 94/2/6 95/2/6 100/2/6
f 61/2/6 81/2/6 101/2/6
f 81/2/6 99/2/6 101/2/6
f 99/2/6 100/2/6 101/2/6
f 100/2/6 98/2/6 102/2/6
f 101/2/6 100/2/6 102/2/6
f 102/2/6 98/2/6 103/2/6
f 92/2/6 64/2/6 104/2/6
f 103/2/6 98/2/6 104/2/6
f 98/2/6 92/2/6 104/2/6
f 102/2/6 103/2/6 105/2/6
f 105/2/6 103/2/6 106/2/6
f 102/2/6 105/2/6 107/2/6
f 105/1/6 106/1/6 107/1/6
f 106/2/6 103/2/6 108/2/6
f 107/1/6 106/1/6 108/1/6
f 102/2/6 107/2/6 109/2/6
f 107/2/6 108/2/6 109/2/6
f 109/2/6 108/2/6 110/2/6
f 102/2/6 109/2/6 111/2/6
f 109/1/6 110/1/6 111/1/6
f 110/2/6 108/2/6 112/2/6
f 111/1/6 110/1/6 112/1/6
f 111/2/6 112/2/6 113/2/6
f 112/2/6 108/2/6 113/2/6
f 108/2/6 103/2/6 114/2/6
f 113/2/6 108/2/6 114/2/6
f 111/2/6 113/2/6 115/2/6
f 113/1/6 114/1/6 115/1/6
f 114/2/6 103/2/6 116/2/6
f 115/1/6 114/1/6 116/1/6
f 101/3/6 102/3/6 117/3/6
f 111/2/6 115/2/6 118/2/6
f 117/3/6 102/3/6 118/3/6
f 102/2/6 111/2/6 118/2/6
f 115/2/6 116/2/6 118/2/6
f 116/2/6 103/2/6 119/2/6
f 118/2/6 116/2/6 119/2/6
f 103/3/6 104/3/6 119/3/6
f 119/3/6 104/3/6 120/3/6
