# MagicaVoxel @ Ephtracy

# group
o 

# material
mtllib RaodP3.mtl
usemtl palette

# normals
vn -1 0 0
vn 1 0 0
vn 0 0 1
vn 0 0 -1
vn 0 -1 0
vn 0 1 0

# texcoords
vt 0.00976563 0.5
vt 0.0917969 0.5
vt 0.107422 0.5
vt 0.123047 0.5
vt 0.142578 0.5

# verts
v -1.5 0 1.5
v -1.5 0 -1.5
v -1.5 0.2 1.5
v -1.5 0.2 -1.5
v -1.5 0.4 1.5
v -1.5 0.4 -1.5
v 1.5 0 1.5
v 1.5 0 -1.5
v 1.5 0.2 1.5
v 1.5 0.2 -1.5
v 1.5 0.4 1.5
v 1.5 0.4 -1.5
v -1.5 0 1.5
v -1.5 0.2 1.5
v -1.5 0.4 1.5
v -1.1 0.3 1.5
v -1.1 0.4 1.5
v -0.9 0.3 1.5
v -0.9 0.4 1.5
v 0.9 0.3 1.5
v 0.9 0.4 1.5
v 1.1 0.3 1.5
v 1.1 0.4 1.5
v 1.5 0 1.5
v 1.5 0.2 1.5
v 1.5 0.4 1.5
v -1.5 0 -1.5
v -1.5 0.2 -1.5
v -1.5 0.4 -1.5
v -1.1 0.3 -1.5
v -1.1 0.4 -1.5
v -0.9 0.3 -1.5
v -0.9 0.4 -1.5
v 0.9 0.3 -1.5
v 0.9 0.4 -1.5
v 1.1 0.3 -1.5
v 1.1 0.4 -1.5
v 1.5 0 -1.5
v 1.5 0.2 -1.5
v 1.5 0.4 -1.5
v -1.5 0 1.5
v 1.5 0 1.5
v -1.5 0 -1.5
v 1.5 0 -1.5
v -1.5 0.4 1.5
v -1.1 0.4 1.5
v -0.9 0.4 1.5
v 0.9 0.4 1.5
v 1.1 0.4 1.5
v 1.5 0.4 1.5
v -0.1 0.4 1.4
v 0.1 0.4 1.4
v -0.1 0.4 0.6
v 0.1 0.4 0.6
v -0.1 0.4 0.4
v 0.1 0.4 0.4
v -0.1 0.4 -0.4
v 0.1 0.4 -0.4
v -0.1 0.4 -0.6
v 0.1 0.4 -0.6
v -0.1 0.4 -1.4
v 0.1 0.4 -1.4
v -1.5 0.4 -1.5
v -1.1 0.4 -1.5
v -0.9 0.4 -1.5
v 0.9 0.4 -1.5
v 1.1 0.4 -1.5
v 1.5 0.4 -1.5

# faces
f 3/3/1 2/3/1 1/3/1
f 4/3/1 2/3/1 3/3/1
f 5/5/1 4/5/1 3/5/1
f 6/5/1 4/5/1 5/5/1
f 7/3/2 8/3/2 9/3/2
f 9/3/2 8/3/2 10/3/2
f 9/5/2 10/5/2 11/5/2
f 11/5/2 10/5/2 12/5/2
f 16/5/3 15/5/3 14/5/3
f 17/5/3 15/5/3 16/5/3
f 18/5/3 16/5/3 14/5/3
f 18/2/3 17/2/3 16/2/3
f 19/2/3 17/2/3 18/2/3
f 20/5/3 18/5/3 14/5/3
f 20/1/3 19/1/3 18/1/3
f 21/1/3 19/1/3 20/1/3
f 22/5/3 20/5/3 14/5/3
f 22/2/3 21/2/3 20/2/3
f 23/2/3 21/2/3 22/2/3
f 24/3/3 14/3/3 13/3/3
f 25/5/3 22/5/3 14/5/3
f 25/3/3 14/3/3 24/3/3
f 25/5/3 23/5/3 22/5/3
f 26/5/3 23/5/3 25/5/3
f 28/5/4 29/5/4 30/5/4
f 30/5/4 29/5/4 31/5/4
f 28/5/4 30/5/4 32/5/4
f 30/2/4 31/2/4 32/2/4
f 32/2/4 31/2/4 33/2/4
f 28/5/4 32/5/4 34/5/4
f 32/1/4 33/1/4 34/1/4
f 34/1/4 33/1/4 35/1/4
f 28/5/4 34/5/4 36/5/4
f 34/2/4 35/2/4 36/2/4
f 36/2/4 35/2/4 37/2/4
f 27/3/4 28/3/4 38/3/4
f 28/5/4 36/5/4 39/5/4
f 38/3/4 28/3/4 39/3/4
f 36/5/4 37/5/4 39/5/4
f 39/5/4 37/5/4 40/5/4
f 43/3/5 42/3/5 41/3/5
f 44/3/5 42/3/5 43/3/5
f 47/1/6 48/1/6 51/1/6
f 51/1/6 48/1/6 52/1/6
f 47/1/6 51/1/6 53/1/6
f 51/4/6 52/4/6 53/4/6
f 52/1/6 48/1/6 54/1/6
f 53/4/6 52/4/6 54/4/6
f 47/1/6 53/1/6 55/1/6
f 53/1/6 54/1/6 55/1/6
f 54/1/6 48/1/6 56/1/6
f 55/1/6 54/1/6 56/1/6
f 47/1/6 55/1/6 57/1/6
f 55/4/6 56/4/6 57/4/6
f 56/1/6 48/1/6 58/1/6
f 57/4/6 56/4/6 58/4/6
f 47/1/6 57/1/6 59/1/6
f 57/1/6 58/1/6 59/1/6
f 58/1/6 48/1/6 60/1/6
f 59/1/6 58/1/6 60/1/6
f 47/1/6 59/1/6 61/1/6
f 59/4/6 60/4/6 61/4/6
f 60/1/6 48/1/6 62/1/6
f 61/4/6 60/4/6 62/4/6
f 45/5/6 46/5/6 63/5/6
f 46/2/6 47/2/6 64/2/6
f 63/5/6 46/5/6 64/5/6
f 47/1/6 61/1/6 65/1/6
f 64/2/6 47/2/6 65/2/6
f 61/1/6 62/1/6 65/1/6
f 62/1/6 48/1/6 66/1/6
f 65/1/6 62/1/6 66/1/6
f 48/2/6 49/2/6 66/2/6
f 49/5/6 50/5/6 67/5/6
f 66/2/6 49/2/6 67/2/6
f 67/5/6 50/5/6 68/5/6
