# MagicaVoxel @ Ephtracy

# group
o 

# material
mtllib Corner01.mtl
usemtl palette

# normals
vn -1 0 0
vn 1 0 0
vn 0 0 1
vn 0 0 -1
vn 0 -1 0
vn 0 1 0

# texcoords
vt 0.0761719 0.5
vt 0.0800781 0.5
vt 0.142578 0.5

# verts
v -1.5 0 1.5
v -1.5 0 -1.5
v -1.5 0.2 1.5
v -1.5 0.2 -1.5
v -1.5 0.3 0.5
v -1.5 0.3 -0.5
v -1.5 0.4 1.5
v -1.5 0.4 0.5
v -1.5 0.4 -0.5
v -1.5 0.4 -1.5
v 1.5 0 1.5
v 1.5 0 -1.5
v 1.5 0.2 1.5
v 1.5 0.2 -1.5
v 1.5 0.4 1.5
v 1.5 0.4 -1.5
v -1.5 0 1.5
v -1.5 0.2 1.5
v -1.5 0.4 1.5
v -0.5 0.3 1.5
v -0.5 0.4 1.5
v 0.5 0.3 1.5
v 0.5 0.4 1.5
v 1.5 0 1.5
v 1.5 0.2 1.5
v 1.5 0.4 1.5
v -1.5 0 -1.5
v -1.5 0.2 -1.5
v -1.5 0.4 -1.5
v 1.5 0 -1.5
v 1.5 0.2 -1.5
v 1.5 0.4 -1.5
v -1.5 0 1.5
v 1.5 0 1.5
v -1.5 0 -1.5
v 1.5 0 -1.5
v -1.5 0.4 1.5
v -0.5 0.4 1.5
v 0.5 0.4 1.5
v 1.5 0.4 1.5
v -0.1 0.4 1.2
v 0 0.4 1.2
v -0.1 0.4 1.1
v 0 0.4 1.1
v 0.1 0.4 0.9
v 0.2 0.4 0.9
v 0.1 0.4 0.8
v 0.2 0.4 0.8
v -0.3 0.4 0.7
v -0.2 0.4 0.7
v -0.3 0.4 0.6
v -0.2 0.4 0.6
v -1.5 0.4 0.5
v -0.5 0.4 0.5
v -0.8 0.4 0.3
v -0.7 0.4 0.3
v 0.2 0.4 0.3
v 0.3 0.4 0.3
v -0.8 0.4 0.2
v -0.7 0.4 0.2
v 0.2 0.4 0.2
v 0.3 0.4 0.2
v -1.1 0.4 0.1
v -1 0.4 0.1
v -0.3 0.4 0.1
v -0.2 0.4 0.1
v -1.1 0.4 0
v -1 0.4 0
v -0.3 0.4 0
v -0.2 0.4 0
v -0.1 0.4 -0.2
v 0 0.4 -0.2
v -0.8 0.4 -0.3
v -0.7 0.4 -0.3
v -0.1 0.4 -0.3
v 0 0.4 -0.3
v -0.8 0.4 -0.4
v -0.7 0.4 -0.4
v -1.5 0.4 -0.5
v 0.5 0.4 -0.5
v -1.5 0.4 -1.5
v 1.5 0.4 -1.5

# faces
f 3/1/1 2/1/1 1/1/1
f 4/1/1 2/1/1 3/1/1
f 5/3/1 4/3/1 3/3/1
f 6/3/1 4/3/1 5/3/1
f 7/3/1 5/3/1 3/3/1
f 8/2/1 6/2/1 5/2/1
f 8/3/1 5/3/1 7/3/1
f 9/3/1 4/3/1 6/3/1
f 9/2/1 6/2/1 8/2/1
f 10/3/1 4/3/1 9/3/1
f 11/1/2 12/1/2 13/1/2
f 13/1/2 12/1/2 14/1/2
f 13/3/2 14/3/2 15/3/2
f 15/3/2 14/3/2 16/3/2
f 20/3/3 19/3/3 18/3/3
f 21/3/3 19/3/3 20/3/3
f 22/3/3 20/3/3 18/3/3
f 22/2/3 21/2/3 20/2/3
f 23/2/3 21/2/3 22/2/3
f 24/1/3 18/1/3 17/1/3
f 25/3/3 22/3/3 18/3/3
f 25/1/3 18/1/3 24/1/3
f 25/3/3 23/3/3 22/3/3
f 26/3/3 23/3/3 25/3/3
f 27/1/4 28/1/4 30/1/4
f 28/3/4 29/3/4 31/3/4
f 30/1/4 28/1/4 31/1/4
f 31/3/4 29/3/4 32/3/4
f 35/1/5 34/1/5 33/1/5
f 36/1/5 34/1/5 35/1/5
f 38/2/6 39/2/6 41/2/6
f 41/2/6 39/2/6 42/2/6
f 38/2/6 41/2/6 43/2/6
f 41/1/6 42/1/6 43/1/6
f 42/2/6 39/2/6 44/2/6
f 43/1/6 42/1/6 44/1/6
f 43/2/6 44/2/6 45/2/6
f 44/2/6 39/2/6 45/2/6
f 45/2/6 39/2/6 46/2/6
f 43/2/6 45/2/6 47/2/6
f 45/1/6 46/1/6 47/1/6
f 46/2/6 39/2/6 48/2/6
f 47/1/6 46/1/6 48/1/6
f 38/2/6 43/2/6 49/2/6
f 43/2/6 47/2/6 49/2/6
f 47/2/6 48/2/6 49/2/6
f 49/2/6 48/2/6 50/2/6
f 38/2/6 49/2/6 51/2/6
f 49/1/6 50/1/6 51/1/6
f 50/2/6 48/2/6 52/2/6
f 51/1/6 50/1/6 52/1/6
f 37/3/6 38/3/6 53/3/6
f 38/2/6 51/2/6 54/2/6
f 53/3/6 38/3/6 54/3/6
f 51/2/6 52/2/6 54/2/6
f 53/2/6 54/2/6 55/2/6
f 55/2/6 54/2/6 56/2/6
f 52/2/6 48/2/6 57/2/6
f 56/2/6 54/2/6 57/2/6
f 48/2/6 39/2/6 57/2/6
f 54/2/6 52/2/6 57/2/6
f 57/2/6 39/2/6 58/2/6
f 55/1/6 56/1/6 59/1/6
f 53/2/6 55/2/6 59/2/6
f 56/2/6 57/2/6 60/2/6
f 59/1/6 56/1/6 60/1/6
f 57/1/6 58/1/6 61/1/6
f 60/2/6 57/2/6 61/2/6
f 58/2/6 39/2/6 62/2/6
f 61/1/6 58/1/6 62/1/6
f 60/2/6 61/2/6 63/2/6
f 59/2/6 60/2/6 63/2/6
f 61/2/6 62/2/6 63/2/6
f 53/2/6 59/2/6 63/2/6
f 63/2/6 62/2/6 64/2/6
f 64/2/6 62/2/6 65/2/6
f 65/2/6 62/2/6 66/2/6
f 53/2/6 63/2/6 67/2/6
f 63/1/6 64/1/6 67/1/6
f 64/2/6 65/2/6 68/2/6
f 67/1/6 64/1/6 68/1/6
f 65/1/6 66/1/6 69/1/6
f 68/2/6 65/2/6 69/2/6
f 66/2/6 62/2/6 70/2/6
f 69/1/6 66/1/6 70/1/6
f 68/2/6 69/2/6 71/2/6
f 70/2/6 62/2/6 71/2/6
f 69/2/6 70/2/6 71/2/6
f 67/2/6 68/2/6 71/2/6
f 71/2/6 62/2/6 72/2/6
f 67/2/6 71/2/6 73/2/6
f 73/2/6 71/2/6 74/2/6
f 71/1/6 72/1/6 75/1/6
f 74/2/6 71/2/6 75/2/6
f 72/2/6 62/2/6 76/2/6
f 75/1/6 72/1/6 76/1/6
f 73/1/6 74/1/6 77/1/6
f 67/2/6 73/2/6 77/2/6
f 74/2/6 75/2/6 78/2/6
f 77/1/6 74/1/6 78/1/6
f 75/2/6 76/2/6 78/2/6
f 53/2/6 67/2/6 79/2/6
f 67/2/6 77/2/6 79/2/6
f 77/2/6 78/2/6 79/2/6
f 62/2/6 39/2/6 80/2/6
f 79/2/6 78/2/6 80/2/6
f 39/3/6 40/3/6 80/3/6
f 76/2/6 62/2/6 80/2/6
f 78/2/6 76/2/6 80/2/6
f 79/3/6 80/3/6 81/3/6
f 80/3/6 40/3/6 82/3/6
f 81/3/6 80/3/6 82/3/6
