# MagicaVoxel @ Ephtracy

# group
o 

# material
mtllib RaodP6.mtl
usemtl palette

# normals
vn -1 0 0
vn 1 0 0
vn 0 0 1
vn 0 0 -1
vn 0 -1 0
vn 0 1 0

# texcoords
vt 0.00976563 0.5
vt 0.0917969 0.5
vt 0.107422 0.5
vt 0.123047 0.5
vt 0.142578 0.5

# verts
v -1.5 0 1.5
v -1.5 0 -1.5
v -1.5 0.2 1.5
v -1.5 0.2 -1.5
v -1.5 0.3 1.1
v -1.5 0.3 0.9
v -1.5 0.3 -0.9
v -1.5 0.3 -1.1
v -1.5 0.4 1.5
v -1.5 0.4 1.1
v -1.5 0.4 0.9
v -1.5 0.4 -0.9
v -1.5 0.4 -1.1
v -1.5 0.4 -1.5
v 1.5 0 1.5
v 1.5 0 -1.5
v 1.5 0.2 1.5
v 1.5 0.2 -1.5
v 1.5 0.4 1.5
v 1.5 0.4 -1.5
v -1.5 0 1.5
v -1.5 0.2 1.5
v -1.5 0.4 1.5
v 1.5 0 1.5
v 1.5 0.2 1.5
v 1.5 0.4 1.5
v -1.5 0 -1.5
v -1.5 0.2 -1.5
v -1.5 0.4 -1.5
v -1.1 0.3 -1.5
v -1.1 0.4 -1.5
v -0.9 0.3 -1.5
v -0.9 0.4 -1.5
v 0.9 0.3 -1.5
v 0.9 0.4 -1.5
v 1.1 0.3 -1.5
v 1.1 0.4 -1.5
v 1.5 0 -1.5
v 1.5 0.2 -1.5
v 1.5 0.4 -1.5
v -1.5 0 1.5
v 1.5 0 1.5
v -1.5 0 -1.5
v 1.5 0 -1.5
v -1.5 0.4 1.5
v 1.5 0.4 1.5
v -1.5 0.4 1.1
v 1.1 0.4 1.1
v -1.5 0.4 0.9
v 0.9 0.4 0.9
v -1.4 0.4 0.1
v -0.6 0.4 0.1
v -0.4 0.4 0.1
v 0.1 0.4 0.1
v -1.4 0.4 -0.1
v -0.6 0.4 -0.1
v -0.4 0.4 -0.1
v -0.1 0.4 -0.1
v -0.1 0.4 -0.4
v 0.1 0.4 -0.4
v -0.1 0.4 -0.6
v 0.1 0.4 -0.6
v -1.5 0.4 -0.9
v -0.9 0.4 -0.9
v -1.5 0.4 -1.1
v -1.1 0.4 -1.1
v -0.1 0.4 -1.4
v 0.1 0.4 -1.4
v -1.5 0.4 -1.5
v -1.1 0.4 -1.5
v -0.9 0.4 -1.5
v 0.9 0.4 -1.5
v 1.1 0.4 -1.5
v 1.5 0.4 -1.5

# faces
f 3/3/1 2/3/1 1/3/1
f 4/3/1 2/3/1 3/3/1
f 5/5/1 4/5/1 3/5/1
f 6/5/1 4/5/1 5/5/1
f 7/5/1 4/5/1 6/5/1
f 8/5/1 4/5/1 7/5/1
f 9/5/1 5/5/1 3/5/1
f 10/2/1 6/2/1 5/2/1
f 10/5/1 5/5/1 9/5/1
f 11/1/1 7/1/1 6/1/1
f 11/2/1 6/2/1 10/2/1
f 12/2/1 8/2/1 7/2/1
f 12/1/1 7/1/1 11/1/1
f 13/5/1 4/5/1 8/5/1
f 13/2/1 8/2/1 12/2/1
f 14/5/1 4/5/1 13/5/1
f 15/3/2 16/3/2 17/3/2
f 17/3/2 16/3/2 18/3/2
f 17/5/2 18/5/2 19/5/2
f 19/5/2 18/5/2 20/5/2
f 24/3/3 22/3/3 21/3/3
f 25/5/3 23/5/3 22/5/3
f 25/3/3 22/3/3 24/3/3
f 26/5/3 23/5/3 25/5/3
f 28/5/4 29/5/4 30/5/4
f 30/5/4 29/5/4 31/5/4
f 28/5/4 30/5/4 32/5/4
f 30/2/4 31/2/4 32/2/4
f 32/2/4 31/2/4 33/2/4
f 28/5/4 32/5/4 34/5/4
f 32/1/4 33/1/4 34/1/4
f 34/1/4 33/1/4 35/1/4
f 28/5/4 34/5/4 36/5/4
f 34/2/4 35/2/4 36/2/4
f 36/2/4 35/2/4 37/2/4
f 27/3/4 28/3/4 38/3/4
f 28/5/4 36/5/4 39/5/4
f 38/3/4 28/3/4 39/3/4
f 36/5/4 37/5/4 39/5/4
f 39/5/4 37/5/4 40/5/4
f 43/3/5 42/3/5 41/3/5
f 44/3/5 42/3/5 43/3/5
f 45/5/6 46/5/6 47/5/6
f 47/5/6 46/5/6 48/5/6
f 47/2/6 48/2/6 49/2/6
f 49/2/6 48/2/6 50/2/6
f 49/1/6 50/1/6 51/1/6
f 51/1/6 50/1/6 52/1/6
f 52/1/6 50/1/6 53/1/6
f 53/1/6 50/1/6 54/1/6
f 49/1/6 51/1/6 55/1/6
f 51/4/6 52/4/6 55/4/6
f 52/1/6 53/1/6 56/1/6
f 55/4/6 52/4/6 56/4/6
f 53/4/6 54/4/6 57/4/6
f 56/1/6 53/1/6 57/1/6
f 57/4/6 54/4/6 58/4/6
f 55/1/6 56/1/6 59/1/6
f 58/4/6 54/4/6 59/4/6
f 57/1/6 58/1/6 59/1/6
f 56/1/6 57/1/6 59/1/6
f 54/1/6 50/1/6 60/1/6
f 59/4/6 54/4/6 60/4/6
f 55/1/6 59/1/6 61/1/6
f 59/1/6 60/1/6 61/1/6
f 60/1/6 50/1/6 62/1/6
f 61/1/6 60/1/6 62/1/6
f 55/1/6 61/1/6 63/1/6
f 49/1/6 55/1/6 63/1/6
f 63/1/6 61/1/6 64/1/6
f 63/2/6 64/2/6 65/2/6
f 65/2/6 64/2/6 66/2/6
f 61/4/6 62/4/6 67/4/6
f 64/1/6 61/1/6 67/1/6
f 62/1/6 50/1/6 68/1/6
f 67/4/6 62/4/6 68/4/6
f 65/5/6 66/5/6 69/5/6
f 66/2/6 64/2/6 70/2/6
f 69/5/6 66/5/6 70/5/6
f 64/1/6 67/1/6 71/1/6
f 70/2/6 64/2/6 71/2/6
f 67/1/6 68/1/6 71/1/6
f 50/2/6 48/2/6 72/2/6
f 71/1/6 68/1/6 72/1/6
f 68/1/6 50/1/6 72/1/6
f 48/5/6 46/5/6 73/5/6
f 72/2/6 48/2/6 73/2/6
f 73/5/6 46/5/6 74/5/6
