# MagicaVoxel @ Ephtracy

# group
o 

# material
mtllib RaodP4.mtl
usemtl palette

# normals
vn -1 0 0
vn 1 0 0
vn 0 0 1
vn 0 0 -1
vn 0 -1 0
vn 0 1 0

# texcoords
vt 0.00976563 0.5
vt 0.0917969 0.5
vt 0.107422 0.5
vt 0.123047 0.5
vt 0.142578 0.5

# verts
v -1.5 0 1.5
v -1.5 0 -1.5
v -1.5 0.2 1.5
v -1.5 0.2 -1.5
v -1.5 0.4 1.5
v -1.5 0.4 -1.5
v 1.5 0 1.5
v 1.5 0 -1.5
v 1.5 0.2 1.5
v 1.5 0.2 -1.5
v 1.5 0.3 1.1
v 1.5 0.3 0.9
v 1.5 0.3 -0.9
v 1.5 0.3 -1.1
v 1.5 0.4 1.5
v 1.5 0.4 1.1
v 1.5 0.4 0.9
v 1.5 0.4 -0.9
v 1.5 0.4 -1.1
v 1.5 0.4 -1.5
v -1.5 0 1.5
v -1.5 0.2 1.5
v -1.5 0.4 1.5
v -1.1 0.3 1.5
v -1.1 0.4 1.5
v -0.9 0.3 1.5
v -0.9 0.4 1.5
v 0.9 0.3 1.5
v 0.9 0.4 1.5
v 1.1 0.3 1.5
v 1.1 0.4 1.5
v 1.5 0 1.5
v 1.5 0.2 1.5
v 1.5 0.4 1.5
v -1.5 0 -1.5
v -1.5 0.2 -1.5
v -1.5 0.4 -1.5
v 1.5 0 -1.5
v 1.5 0.2 -1.5
v 1.5 0.4 -1.5
v -1.5 0 1.5
v 1.5 0 1.5
v -1.5 0 -1.5
v 1.5 0 -1.5
v -1.5 0.4 1.5
v -1.1 0.4 1.5
v -0.9 0.4 1.5
v 0.9 0.4 1.5
v 1.1 0.4 1.5
v 1.5 0.4 1.5
v -0.1 0.4 1.4
v 0.1 0.4 1.4
v 1.1 0.4 1.1
v 1.5 0.4 1.1
v 0.9 0.4 0.9
v 1.5 0.4 0.9
v -0.1 0.4 0.6
v 0.1 0.4 0.6
v -0.1 0.4 0.4
v 0.1 0.4 0.4
v 0.1 0.4 0.1
v 0.4 0.4 0.1
v 0.6 0.4 0.1
v 1.4 0.4 0.1
v -0.1 0.4 -0.1
v 0.4 0.4 -0.1
v 0.6 0.4 -0.1
v 1.4 0.4 -0.1
v -0.9 0.4 -0.9
v 1.5 0.4 -0.9
v -1.1 0.4 -1.1
v 1.5 0.4 -1.1
v -1.5 0.4 -1.5
v 1.5 0.4 -1.5

# faces
f 3/3/1 2/3/1 1/3/1
f 4/3/1 2/3/1 3/3/1
f 5/5/1 4/5/1 3/5/1
f 6/5/1 4/5/1 5/5/1
f 7/3/2 8/3/2 9/3/2
f 9/3/2 8/3/2 10/3/2
f 9/5/2 10/5/2 11/5/2
f 11/5/2 10/5/2 12/5/2
f 12/5/2 10/5/2 13/5/2
f 13/5/2 10/5/2 14/5/2
f 9/5/2 11/5/2 15/5/2
f 11/2/2 12/2/2 16/2/2
f 15/5/2 11/5/2 16/5/2
f 12/1/2 13/1/2 17/1/2
f 16/2/2 12/2/2 17/2/2
f 13/2/2 14/2/2 18/2/2
f 17/1/2 13/1/2 18/1/2
f 14/5/2 10/5/2 19/5/2
f 18/2/2 14/2/2 19/2/2
f 19/5/2 10/5/2 20/5/2
f 24/5/3 23/5/3 22/5/3
f 25/5/3 23/5/3 24/5/3
f 26/5/3 24/5/3 22/5/3
f 26/2/3 25/2/3 24/2/3
f 27/2/3 25/2/3 26/2/3
f 28/5/3 26/5/3 22/5/3
f 28/1/3 27/1/3 26/1/3
f 29/1/3 27/1/3 28/1/3
f 30/5/3 28/5/3 22/5/3
f 30/2/3 29/2/3 28/2/3
f 31/2/3 29/2/3 30/2/3
f 32/3/3 22/3/3 21/3/3
f 33/5/3 30/5/3 22/5/3
f 33/3/3 22/3/3 32/3/3
f 33/5/3 31/5/3 30/5/3
f 34/5/3 31/5/3 33/5/3
f 35/3/4 36/3/4 38/3/4
f 36/5/4 37/5/4 39/5/4
f 38/3/4 36/3/4 39/3/4
f 39/5/4 37/5/4 40/5/4
f 43/3/5 42/3/5 41/3/5
f 44/3/5 42/3/5 43/3/5
f 47/1/6 48/1/6 51/1/6
f 51/1/6 48/1/6 52/1/6
f 49/5/6 50/5/6 53/5/6
f 48/2/6 49/2/6 53/2/6
f 53/5/6 50/5/6 54/5/6
f 52/1/6 48/1/6 55/1/6
f 48/2/6 53/2/6 55/2/6
f 53/2/6 54/2/6 55/2/6
f 55/2/6 54/2/6 56/2/6
f 51/4/6 52/4/6 57/4/6
f 47/1/6 51/1/6 57/1/6
f 55/1/6 56/1/6 58/1/6
f 57/4/6 52/4/6 58/4/6
f 52/1/6 55/1/6 58/1/6
f 47/1/6 57/1/6 59/1/6
f 57/1/6 58/1/6 59/1/6
f 58/1/6 56/1/6 60/1/6
f 59/1/6 58/1/6 60/1/6
f 59/4/6 60/4/6 61/4/6
f 60/1/6 56/1/6 61/1/6
f 61/1/6 56/1/6 62/1/6
f 62/1/6 56/1/6 63/1/6
f 63/1/6 56/1/6 64/1/6
f 47/1/6 59/1/6 65/1/6
f 59/4/6 61/4/6 65/4/6
f 61/4/6 62/4/6 65/4/6
f 62/1/6 63/1/6 66/1/6
f 65/4/6 62/4/6 66/4/6
f 63/4/6 64/4/6 67/4/6
f 66/1/6 63/1/6 67/1/6
f 64/1/6 56/1/6 68/1/6
f 67/4/6 64/4/6 68/4/6
f 46/2/6 47/2/6 69/2/6
f 66/1/6 67/1/6 69/1/6
f 67/1/6 68/1/6 69/1/6
f 47/1/6 65/1/6 69/1/6
f 65/1/6 66/1/6 69/1/6
f 68/1/6 56/1/6 70/1/6
f 69/1/6 68/1/6 70/1/6
f 45/5/6 46/5/6 71/5/6
f 46/2/6 69/2/6 71/2/6
f 69/2/6 70/2/6 71/2/6
f 71/2/6 70/2/6 72/2/6
f 45/5/6 71/5/6 73/5/6
f 71/5/6 72/5/6 73/5/6
f 73/5/6 72/5/6 74/5/6
